<?xml version="1.0" encoding="UTF-8" standalone="no"?>
<svg
   xmlns:dc="http://purl.org/dc/elements/1.1/"
   xmlns:cc="http://creativecommons.org/ns#"
   xmlns:rdf="http://www.w3.org/1999/02/22-rdf-syntax-ns#"
   xmlns:svg="http://www.w3.org/2000/svg"
   xmlns="http://www.w3.org/2000/svg"
   id="svg203"
   xml:space="preserve"
   viewBox="0 0 1024 1024"
   y="0px"
   x="0px"
   version="1.1"><metadata
     id="metadata209"><rdf:RDF><cc:Work
         rdf:about=""><dc:format>image/svg+xml</dc:format><dc:type
           rdf:resource="http://purl.org/dc/dcmitype/StillImage" /></cc:Work></rdf:RDF></metadata><defs
     id="defs207" /><style
     id="style2">
.bubbles circle {
  stroke: #d7a909;
  fill: none;
}
.bubbles &gt; g &gt; g:nth-of-type(3n) circle {
  stroke: #a37f0b;
}
.bubbles &gt; g &gt; g:nth-of-type(4n) circle {
  stroke: #6f550c;
}

.bubbles-large {
  overflow: visible;
}
.bubbles-large &gt; g {
  -webkit-transform: translateY(1500px);
          transform: translateY(1500px);
  opacity: 0;
  will-change: transform, opacity;
}
.bubbles-large g:nth-of-type(1) {
  -webkit-animation: up 6.5s infinite;
          animation: up 6.5s infinite;
}
.bubbles-large g:nth-of-type(1) g {
  -webkit-transform: translateX(350px);
          transform: translateX(350px);
}
.bubbles-large g:nth-of-type(1) circle {
  -webkit-animation: wobble 3s infinite ease-in-out;
          animation: wobble 3s infinite ease-in-out;
}
.bubbles-large g:nth-of-type(2) {
  -webkit-animation: up 5.25s 250ms infinite;
          animation: up 5.25s 250ms infinite;
}
.bubbles-large g:nth-of-type(2) g {
  -webkit-transform: translateX(450px);
          transform: translateX(450px);
}
.bubbles-large g:nth-of-type(2) circle {
  -webkit-animation: wobble 3s infinite ease-in-out;
          animation: wobble 3s infinite ease-in-out;
}
.bubbles-large g:nth-of-type(3) {
  -webkit-animation: up 6s 750ms infinite;
          animation: up 6s 750ms infinite;
}
.bubbles-large g:nth-of-type(3) g {
  -webkit-transform: translateX(700px);
          transform: translateX(700px);
}
.bubbles-large g:nth-of-type(3) circle {
  -webkit-animation: wobble 3s infinite ease-in-out;
          animation: wobble 3s infinite ease-in-out;
}
.bubbles-large g:nth-of-type(4) {
  -webkit-animation: up 5.5s 1.5s infinite;
          animation: up 5.5s 1.5s infinite;
}
.bubbles-large g:nth-of-type(4) g {
  -webkit-transform: translateX(500px);
          transform: translateX(500px);
}
.bubbles-large g:nth-of-type(4) circle {
  -webkit-animation: wobble 3s infinite ease-in-out;
          animation: wobble 3s infinite ease-in-out;
}
.bubbles-large g:nth-of-type(5) {
  -webkit-animation: up 6.5s 4s infinite;
          animation: up 6.5s 4s infinite;
}
.bubbles-large g:nth-of-type(5) g {
  -webkit-transform: translateX(675px);
          transform: translateX(675px);
}
.bubbles-large g:nth-of-type(5) circle {
  -webkit-animation: wobble 3s infinite ease-in-out;
          animation: wobble 3s infinite ease-in-out;
}

.bubbles-small {
  overflow: visible;
}
.bubbles-small &gt; g {
  -webkit-transform: translateY(1400px);
          transform: translateY(1400px);
  opacity: 0;
  will-change: transform, opacity;
}
.bubbles-small g circle {
  -webkit-transform: scale(0);
          transform: scale(0);
}
.bubbles-small g:nth-of-type(1) {
  -webkit-animation: up 5.25s infinite;
          animation: up 5.25s infinite;
}
.bubbles-small g:nth-of-type(1) g {
  -webkit-transform: translateX(350px);
          transform: translateX(350px);
}
.bubbles-small g:nth-of-type(1) circle {
  -webkit-animation: wobble 3s infinite ease-in-out;
          animation: wobble 3s infinite ease-in-out;
}
.bubbles-small g:nth-of-type(2) {
  -webkit-animation: up 5.75s infinite;
          animation: up 5.75s infinite;
}
.bubbles-small g:nth-of-type(2) g {
  -webkit-transform: translateX(750px);
          transform: translateX(750px);
}
.bubbles-small g:nth-of-type(2) circle {
  -webkit-animation: wobble 3s infinite ease-in-out;
          animation: wobble 3s infinite ease-in-out;
}
.bubbles-small g:nth-of-type(3) {
  -webkit-animation: up 5.25s 250ms infinite;
          animation: up 5.25s 250ms infinite;
}
.bubbles-small g:nth-of-type(3) g {
  -webkit-transform: translateX(350px);
          transform: translateX(350px);
}
.bubbles-small g:nth-of-type(3) circle {
  -webkit-animation: wobble 3s 250ms infinite ease-in-out;
          animation: wobble 3s 250ms infinite ease-in-out;
}
.bubbles-small g:nth-of-type(4) {
  -webkit-animation: up 5.75s 325ms infinite;
          animation: up 5.75s 325ms infinite;
}
.bubbles-small g:nth-of-type(4) g {
  -webkit-transform: translateX(180px);
          transform: translateX(180px);
}
.bubbles-small g:nth-of-type(4) circle {
  -webkit-animation: wobble 3s 325ms infinite ease-in-out;
          animation: wobble 3s 325ms infinite ease-in-out;
}
.bubbles-small g:nth-of-type(5) {
  -webkit-animation: up 6s 125ms infinite;
          animation: up 6s 125ms infinite;
}
.bubbles-small g:nth-of-type(5) g {
  -webkit-transform: translateX(350px);
          transform: translateX(350px);
}
.bubbles-small g:nth-of-type(5) circle {
  -webkit-animation: wobble 3s 250ms infinite ease-in-out;
          animation: wobble 3s 250ms infinite ease-in-out;
}
.bubbles-small g:nth-of-type(6) {
  -webkit-animation: up 5.13s 250ms infinite;
          animation: up 5.13s 250ms infinite;
}
.bubbles-small g:nth-of-type(6) g {
  -webkit-transform: translateX(650px);
          transform: translateX(650px);
}
.bubbles-small g:nth-of-type(6) circle {
  -webkit-animation: wobble 3s 125ms infinite ease-in-out;
          animation: wobble 3s 125ms infinite ease-in-out;
}
.bubbles-small g:nth-of-type(7) {
  -webkit-animation: up 6.25s 350ms infinite;
          animation: up 6.25s 350ms infinite;
}
.bubbles-small g:nth-of-type(7) g {
  -webkit-transform: translateX(480px);
          transform: translateX(480px);
}
.bubbles-small g:nth-of-type(7) circle {
  -webkit-animation: wobble 3s 325ms infinite ease-in-out;
          animation: wobble 3s 325ms infinite ease-in-out;
}
.bubbles-small g:nth-of-type(8) {
  -webkit-animation: up 7s 200ms infinite;
          animation: up 7s 200ms infinite;
}
.bubbles-small g:nth-of-type(8) g {
  -webkit-transform: translateX(330px);
          transform: translateX(330px);
}
.bubbles-small g:nth-of-type(8) circle {
  -webkit-animation: wobble 3s 325ms infinite ease-in-out;
          animation: wobble 3s 325ms infinite ease-in-out;
}
.bubbles-small g:nth-of-type(9) {
  -webkit-animation: up 6.25s 233ms infinite;
          animation: up 6.25s 233ms infinite;
}
.bubbles-small g:nth-of-type(9) g {
  -webkit-transform: translateX(230px);
          transform: translateX(230px);
}
.bubbles-small g:nth-of-type(9) circle {
  -webkit-animation: wobble 3s 275ms infinite ease-in-out;
          animation: wobble 3s 275ms infinite ease-in-out;
}
.bubbles-small g:nth-of-type(10) {
  -webkit-animation: up 6s 900ms infinite;
          animation: up 6s 900ms infinite;
}
.bubbles-small g:nth-of-type(10) g {
  -webkit-transform: translateX(730px);
          transform: translateX(730px);
}
.bubbles-small g:nth-of-type(10) circle {
  -webkit-animation: wobble 2s 905ms infinite ease-in-out;
          animation: wobble 2s 905ms infinite ease-in-out;
}

@-webkit-keyframes wobble {
  33% {
    -webkit-transform: translateX(-50px);
            transform: translateX(-50px);
  }
  66% {
    -webkit-transform: translateX(50px);
            transform: translateX(50px);
  }
}

@keyframes wobble {
  33% {
    -webkit-transform: translateX(-50px);
            transform: translateX(-50px);
  }
  66% {
    -webkit-transform: translateX(50px);
            transform: translateX(50px);
  }
}

@-webkit-keyframes up {
  0% {
    opacity: 0;
  }
  10%, 90% {
    opacity: 1;
  }
  100% {
    opacity: 0;
    -webkit-transform: translateY(-768px);
            transform: translateY(-768px);
  }
}
@keyframes up {
  0% {
    opacity: 0;
  }
  10%, 90% {
    opacity: 1;
  }
  100% {
    opacity: 0;
    -webkit-transform: translateY(-768px);
            transform: translateY(-768px);
  }
}

</style><g
     id="g98"
     transform="translate(150)"
     class="bubbles"><g
       style="overflow:visible;stroke-width:7"
       id="g34"
       class="bubbles-large"><g
         style="opacity:0"
         id="g8"><g
           id="g6"
           transform="translate(10,940)"><path
             id="circle4"
             d="M 70,35 A 35,35 0 0 1 35,70 35,35 0 0 1 0,35 35,35 0 0 1 35,0 35,35 0 0 1 70,35 Z"
             style="fill:none;stroke:#d7a909" /></g></g><g
         style="opacity:0"
         id="g14"><g
           id="g12"
           transform="translate(373,940)"><path
             id="circle10"
             d="M 70,35 A 35,35 0 0 1 35,70 35,35 0 0 1 0,35 35,35 0 0 1 35,0 35,35 0 0 1 70,35 Z"
             style="fill:none;stroke:#d7a909" /></g></g><g
         style="opacity:0"
         id="g20"><g
           id="g18"
           transform="translate(408,940)"><path
             id="circle16"
             d="M 70,35 A 35,35 0 0 1 35,70 35,35 0 0 1 0,35 35,35 0 0 1 35,0 35,35 0 0 1 70,35 Z"
             style="fill:none;stroke:#d7a909" /></g></g><g
         style="opacity:0"
         id="g26"><g
           id="g24"
           transform="translate(621,940)"><path
             id="circle22"
             d="M 70,35 A 35,35 0 0 1 35,70 35,35 0 0 1 0,35 35,35 0 0 1 35,0 35,35 0 0 1 70,35 Z"
             style="fill:none;stroke:#d7a909" /></g></g><g
         style="opacity:0"
         id="g32"><g
           id="g30"
           transform="translate(179,940)"><path
             id="circle28"
             d="M 70,35 A 35,35 0 0 1 35,70 35,35 0 0 1 0,35 35,35 0 0 1 35,0 35,35 0 0 1 70,35 Z"
             style="fill:none;stroke:#d7a909" /></g></g></g><g
       style="overflow:visible;stroke-width:4"
       id="g96"
       class="bubbles-small"><g
         style="opacity:0"
         id="g40"><g
           id="g38"
           transform="translate(147,984)"><path
             id="circle36"
             d="M 30,15 A 15,15 0 0 1 15,30 15,15 0 0 1 0,15 15,15 0 0 1 15,0 15,15 0 0 1 30,15 Z"
             style="fill:none;stroke:#d7a909" /></g></g><g
         style="opacity:0"
         id="g46"><g
           id="g44"
           transform="translate(255,984)"><path
             id="circle42"
             d="M 30,15 A 15,15 0 0 1 15,30 15,15 0 0 1 0,15 15,15 0 0 1 15,0 15,15 0 0 1 30,15 Z"
             style="fill:none;stroke:#d7a909" /></g></g><g
         style="opacity:0"
         id="g52"><g
           id="g50"
           transform="translate(573,984)"><path
             id="circle48"
             d="M 30,15 A 15,15 0 0 1 15,30 15,15 0 0 1 0,15 15,15 0 0 1 15,0 15,15 0 0 1 30,15 Z"
             style="fill:none;stroke:#d7a909" /></g></g><g
         style="opacity:0"
         id="g58"><g
           id="g56"
           transform="translate(429,984)"><path
             id="circle54"
             d="M 30,15 A 15,15 0 0 1 15,30 15,15 0 0 1 0,15 15,15 0 0 1 15,0 15,15 0 0 1 30,15 Z"
             style="fill:none;stroke:#d7a909" /></g></g><g
         style="opacity:0"
         id="g64"><g
           id="g62"
           transform="translate(91,984)"><path
             id="circle60"
             d="M 30,15 A 15,15 0 0 1 15,30 15,15 0 0 1 0,15 15,15 0 0 1 15,0 15,15 0 0 1 30,15 Z"
             style="fill:none;stroke:#d7a909" /></g></g><g
         style="opacity:0"
         id="g70"><g
           id="g68"
           transform="translate(640,984)"><path
             id="circle66"
             d="M 30,15 A 15,15 0 0 1 15,30 15,15 0 0 1 0,15 15,15 0 0 1 15,0 15,15 0 0 1 30,15 Z"
             style="fill:none;stroke:#d7a909" /></g></g><g
         style="opacity:0"
         id="g76"><g
           id="g74"
           transform="translate(321,984)"><path
             id="circle72"
             d="M 30,15 A 15,15 0 0 1 15,30 15,15 0 0 1 0,15 15,15 0 0 1 15,0 15,15 0 0 1 30,15 Z"
             style="fill:none;stroke:#d7a909" /></g></g><g
         style="opacity:0"
         id="g82"><g
           id="g80"
           transform="translate(376,984)"><path
             id="circle78"
             d="M 30,15 A 15,15 0 0 1 15,30 15,15 0 0 1 0,15 15,15 0 0 1 15,0 15,15 0 0 1 30,15 Z"
             style="fill:none;stroke:#d7a909" /></g></g><g
         style="opacity:0"
         id="g88"><g
           id="g86"
           transform="translate(376,984)"><path
             id="circle84"
             d="M 30,15 A 15,15 0 0 1 15,30 15,15 0 0 1 0,15 15,15 0 0 1 15,0 15,15 0 0 1 30,15 Z"
             style="fill:none;stroke:#d7a909" /></g></g><g
         style="opacity:0"
         id="g94"><g
           id="g92"
           transform="translate(497,984)"><path
             id="circle90"
             d="M 30,15 A 15,15 0 0 1 15,30 15,15 0 0 1 0,15 15,15 0 0 1 15,0 15,15 0 0 1 30,15 Z"
             style="fill:none;stroke:#d7a909" /></g></g></g></g><g
     transform="translate(0,128)"
     id="fade"><g
       transform="translate(-0.00532,0.21327)"
       id="logo-group"><g
         transform="matrix(2.4,0,0,2.4,272,144)"
         id="container-group"><path
           style="fill:#d7a909"
           d="m 100.22,23.834 c -0.18348,-0.01446 -0.40866,-0.0061 -0.5004,0.01835 -0.09174,0.02391 -0.2641,0.09396 -0.38253,0.15512 -0.11898,0.06172 -4.9434,4.0755 -10.721,8.9194 l -10.507,8.808 -13.854,0.027 -13.854,0.028 -0.31,0.146 c -0.17069,0.08006 -0.40199,0.23741 -0.51374,0.34917 -0.11176,0.11176 -0.25576,0.30636 -0.32026,0.43257 -0.0884,0.17292 -0.71001,3.589 -2.5064,13.774 -1.8253,10.348 -2.4108,13.565 -2.4825,13.635 -0.05115,0.05004 -4.6971,3.9504 -10.324,8.6675 -5.6267,4.7171 -10.364,8.7042 -10.528,8.8604 -0.16402,0.15624 -0.35806,0.40922 -0.43034,0.56212 -0.10342,0.21684 -0.13233,0.3703 -0.13177,0.695 5.56e-4,0.28467 0.0328,0.48761 0.1023,0.6394 0.05616,0.12232 3.1731,5.5389 6.9266,12.037 l 6.8249,11.815 -2.3725,13.451 c -1.3049,7.3981 -2.3725,13.585 -2.3725,13.749 0,0.16346 0.04114,0.42089 0.09118,0.57212 0.05115,0.15401 0.19849,0.39365 0.33471,0.54544 0.1579,0.17569 0.3564,0.32025 0.56601,0.41199 0.17736,0.0778 6.027,2.2123 12.999,4.7432 6.9722,2.5315 12.717,4.6426 12.767,4.6915 0.04948,0.0484 3.1514,5.3926 6.8927,11.876 4.5714,7.9208 6.8811,11.872 7.0423,12.045 0.139,0.14957 0.36196,0.31081 0.52987,0.38309 0.2035,0.0879 0.39754,0.1251 0.65108,0.12399 l 0.3614,-0.001 12.944,-4.7099 12.944,-4.7099 12.883,4.6854 c 11.182,4.0671 12.931,4.6888 13.253,4.7093 0.25965,0.0167 0.4587,-0.006 0.66665,-0.0745 0.21572,-0.0717 0.37863,-0.18237 0.60214,-0.41033 0.26188,-0.26688 1.2866,-2.011 7.084,-12.06 3.7274,-6.4618 6.8177,-11.795 6.8666,-11.852 0.0545,-0.0639 5.0046,-1.8882 12.821,-4.7266 7.0028,-2.5431 12.836,-4.6687 12.961,-4.7238 0.12621,-0.055 0.33193,-0.19293 0.45703,-0.30636 0.12566,-0.11287 0.2919,-0.33638 0.36974,-0.49595 0.0784,-0.15957 0.15624,-0.41366 0.17348,-0.5649 0.0245,-0.2135 -0.49651,-3.2626 -2.3396,-13.702 -1.3044,-7.3848 -2.3758,-13.49 -2.3814,-13.566 -0.007,-0.0951 2.1478,-3.8748 6.7876,-11.908 3.7385,-6.4724 6.8505,-11.888 6.915,-12.035 0.084,-0.18904 0.11732,-0.37641 0.11565,-0.64218 -0.002,-0.28356 -0.0367,-0.44647 -0.14345,-0.66942 -0.0773,-0.16235 -0.19849,-0.35973 -0.2691,-0.43924 -0.0706,-0.07951 -4.8072,-4.0671 -10.526,-8.8615 -5.7185,-4.7944 -10.439,-8.7576 -10.491,-8.807 -0.0717,-0.06894 -0.65441,-3.2698 -2.4836,-13.641 l -2.3908,-13.551 -0.15512,-0.28523 c -0.0856,-0.15679 -0.24298,-0.35751 -0.35028,-0.44591 -0.10676,-0.0884 -0.30803,-0.21684 -0.44647,-0.28578 l -0.25,-0.122 -13.88,-0.028 -13.88,-0.027 -10.5,-8.813 c -5.7746,-4.8472 -10.613,-8.8688 -10.751,-8.9377 -0.14067,-0.0695 -0.39809,-0.13566 -0.58491,-0.15012 z m -0.12955,3.9343 c 0.0206,0.0061 3.7825,3.1503 8.36,6.9884 l 8.3222,6.9778 -8.3456,0.0139 c -4.5903,0.0078 -12.101,0.0078 -16.69,0 l -8.3439,-0.0139 8.33,-6.9884 c 4.5814,-3.8431 8.3467,-6.9834 8.3672,-6.9778 z m -36.968,17.386 c 9.3975,0 10.894,0.01112 10.824,0.0784 -0.04448,0.04337 -5.7963,4.8722 -12.781,10.731 -6.9845,5.8591 -12.707,10.645 -12.717,10.636 -0.0095,-0.0095 0.8201,-4.7699 1.8431,-10.578 1.023,-5.8085 1.8748,-10.63 1.8932,-10.714 l 0.03336,-0.1529 z m 36.956,0.0017 20.768,0.0022 15.902,13.344 c 8.7459,7.3392 15.907,13.362 15.914,13.383 0.007,0.02224 1.6274,9.2068 3.6001,20.411 1.9732,11.204 3.5873,20.401 3.5873,20.437 0,0.0367 -4.6548,8.1337 -10.344,17.993 -5.6896,9.8596 -10.374,17.954 -10.411,17.988 -0.0367,0.0339 -8.7859,3.2354 -19.443,7.114 -10.6571,3.8786 -19.439,7.0612 -19.516,7.0718 -0.0845,0.0117 -5.3198,-1.8676 -13.288,-4.7694 -7.2319,-2.6343 -15.964,-5.813 -19.404,-7.064 -3.44,-1.251 -6.2911,-2.2957 -6.3356,-2.3207 -0.04448,-0.0256 -4.751,-8.1321 -10.459,-18.014 l -10.378,-17.968 0.05338,-0.29245 c 0.02891,-0.16069 1.6502,-9.3592 3.6018,-20.441 2.1912,-12.441 3.5773,-20.176 3.6229,-20.221 0.04059,-0.04003 7.2035,-6.0537 15.918,-13.365 l 15.842,-13.289 z m 36.96,-0.0017 h 10.905 l 0.0334,0.1529 c 0.0183,0.08396 0.87014,4.9056 1.8926,10.714 1.023,5.8085 1.8532,10.568 1.8442,10.577 -0.008,0.0089 -5.7312,-4.7777 -12.717,-10.636 -6.985,-5.8586 -12.737,-10.687 -12.782,-10.73 -0.07,-0.06672 1.4901,-0.07784 10.824,-0.07784 z m -93.629,30.164 c 0.0083,0.0056 -1.2738,7.3259 -2.8489,16.267 -1.5751,8.9416 -2.8829,16.329 -2.9062,16.415 -0.03781,0.14178 -0.59548,-0.80064 -5.4566,-9.2207 -2.9774,-5.158 -5.4171,-9.4109 -5.421,-9.4509 -0.0033,-0.04059 3.7341,-3.2115 8.3055,-7.0473 4.572,-3.8353 8.3189,-6.9689 8.3272,-6.9633 z m 114.31,0.797 c 0.54266,0.45703 4.2895,3.5995 8.3261,6.9839 4.0366,3.3844 7.3359,6.1866 7.3325,6.2278 -0.004,0.04114 -2.4436,4.2951 -5.421,9.4531 -4.86,8.4184 -5.4188,9.3625 -5.4566,9.2207 -0.0234,-0.0862 -1.3305,-7.4693 -2.9051,-16.406 -1.5746,-8.9371 -2.8628,-16.262 -2.8628,-16.279 0,-0.01668 0.44424,0.34305 0.9869,0.79953 z m -118.05,42.435 c 0.16569,0.28912 3.9148,6.781 8.3305,14.426 4.4158,7.645 8.0214,13.908 8.0125,13.918 -0.0089,0.01 -2.9146,-1.0369 -6.4568,-2.3269 -3.5423,-1.2899 -8.1293,-2.9596 -10.194,-3.7108 -2.0639,-0.7506 -3.7625,-1.3722 -3.7736,-1.3817 -0.01112,-0.009 0.82121,-4.8027 1.8509,-10.652 1.0292,-5.8502 1.8837,-10.673 1.8993,-10.717 0.01724,-0.0489 0.1479,0.12733 0.33082,0.4448 z m 121.13,-0.46 c 0.0195,0.02 0.87904,4.8355 1.911,10.701 1.0319,5.8652 1.867,10.671 1.8559,10.68 -0.0117,0.009 -0.74615,0.28023 -1.633,0.60326 -0.88682,0.32248 -5.4733,1.9927 -10.192,3.7119 -4.7188,1.7192 -8.5874,3.1164 -8.5974,3.1058 -0.009,-0.0111 3.7263,-6.5041 8.3016,-14.429 4.5759,-7.9247 8.335,-14.393 8.3539,-14.373 z m -97.062,35.259 c 0.01835,0 7.0073,2.5426 15.532,5.6495 8.524,3.1075 15.569,5.6784 15.655,5.7129 l 0.15679,0.0634 -10.237,3.7185 c -5.6295,2.0455 -10.245,3.7091 -10.255,3.6974 -0.01112,-0.0117 -2.4025,-4.1494 -5.3148,-9.1951 -2.9123,-5.0457 -5.3565,-9.2802 -5.4327,-9.4103 -0.07562,-0.1301 -0.12232,-0.2363 -0.10453,-0.2363 z m 72.689,0.025 c 0.008,0.007 -2.428,4.2384 -5.4132,9.4036 -2.9852,5.1658 -5.4354,9.4008 -5.4455,9.4114 -0.01,0.0111 -4.6231,-1.653 -10.252,-3.6974 -7.0228,-2.5504 -10.204,-3.7302 -10.136,-3.7591 0.0534,-0.0233 7.1029,-2.5915 15.665,-5.7068 8.5624,-3.1153 15.574,-5.659 15.582,-5.6517 z"
           id="container" /></g><path
         stroke-miterlimit="2"
         d="m 446.2,433.88 c -0.82368,2.6998 -1.8304,6.5894 -1.8304,8.0995 0,1.6931 1.0067,2.9744 2.5626,2.9744 1.7389,0 3.0202,-1.144 3.3405,-1.9677 -1.6931,-0.82368 -1.5101,-2.1507 -1.2813,-4.0269 0.18304,-1.2813 0.64064,-3.0202 1.2355,-5.0336 1.8762,-0.0458 3.5235,-0.36608 4.9878,-1.1898 1.5101,-0.86944 2.3795,-2.1507 2.6541,-3.615 0.18304,-1.0067 -0.13728,-2.1507 -0.73216,-2.3795 -1.5101,1.2355 -3.2947,2.0134 -5.3997,2.5168 1.1898,-3.432 2.4253,-6.9555 3.1574,-9.2893 1.4186,-4.4845 1.327,-7.4589 -1.0525,-7.4589 -4.4845,0 -9.5181,4.5302 -14.14,12.447 -1.1898,2.0592 -2.1965,3.9811 -3.1117,5.7658 -8.5571,1.0525 -13.27,4.3472 -13.362,9.6096 -0.0915,2.7914 2.3795,4.6218 4.8963,4.6218 6.1776,0 10.571,-5.9946 13.499,-11.165 1.4186,-0.0458 3.1117,0 4.576,0.0915 z m -18.121,7.5504 c -0.73216,-0.0915 -1.1898,-0.6864 -1.1898,-1.4186 0,-1.8304 2.3795,-4.8506 7.9165,-5.8115 -0.64064,1.2813 -1.2355,2.4253 -1.8762,3.4778 -1.0982,1.8762 -2.6541,4.0726 -4.8506,3.7523 z m 16.108,-12.492 c 2.6998,-5.1251 5.537,-10.204 7.9165,-12.721 -0.2288,1.6474 -2.9744,9.152 -4.576,13.682 -1.2355,0.13728 -2.5626,0.2288 -4.0269,0.32032 0.27456,-0.4576 0.4576,-0.86944 0.6864,-1.2813 z"
         style="font-variant-ligatures:none;fill:#d7a909;stroke-width:0;stroke-miterlimit:2"
         id="path719951" /><path
         stroke-miterlimit="2"
         d="m 469.08,433.61 c -1.4643,2.5168 -4.7133,8.5571 -10.388,8.7402 -1.0525,-2.7456 0.2288,-6.4979 1.3728,-8.8774 1.1898,-2.471 3.0659,-4.7133 4.4845,-5.4454 0.6864,1.4643 -0.0458,4.576 -1.4186,5.3082 2.5168,0.77792 4.5302,-1.8304 4.5302,-3.9811 0,-2.5626 -2.6083,-3.8896 -5.2624,-3.8896 -3.2947,0 -6.4522,3.432 -8.0538,7.5046 -0.82368,2.105 -1.144,3.8896 -1.144,5.3997 -0.0458,4.393 3.1117,6.8182 6.2234,6.8182 1.6474,0 2.9286,-0.41184 4.3014,-1.0982 2.3338,-1.144 5.3997,-4.0269 7.3216,-7.5962 0.2288,-0.86944 -1.0982,-2.5168 -1.9677,-2.8829 z"
         style="font-variant-ligatures:none;fill:#d7a909;stroke-width:0;stroke-miterlimit:2"
         id="path719953" /><path
         stroke-miterlimit="2"
         d="m 483.74,433.61 c -1.4643,2.5168 -4.7133,8.5571 -10.388,8.7402 -1.0525,-2.7456 0.2288,-6.4979 1.3728,-8.8774 1.1898,-2.471 3.0659,-4.7133 4.4845,-5.4454 0.6864,1.4643 -0.0458,4.576 -1.4186,5.3082 2.5168,0.77792 4.5302,-1.8304 4.5302,-3.9811 0,-2.5626 -2.6083,-3.8896 -5.2624,-3.8896 -3.2947,0 -6.4522,3.432 -8.0538,7.5046 -0.82368,2.105 -1.144,3.8896 -1.144,5.3997 -0.0458,4.393 3.1117,6.8182 6.2234,6.8182 1.6474,0 2.9286,-0.41184 4.3014,-1.0982 2.3338,-1.144 5.3997,-4.0269 7.3216,-7.5962 0.2288,-0.86944 -1.0982,-2.5168 -1.9677,-2.8829 z"
         style="font-variant-ligatures:none;fill:#d7a909;stroke-width:0;stroke-miterlimit:2"
         id="path719955" /><path
         stroke-miterlimit="2"
         d="m 498.9,433.61 c -1.8304,3.5235 -5.8573,8.5114 -11.165,8.6944 -0.4576,-1.327 -0.32032,-3.1117 -0.13728,-3.9811 4.393,-0.27456 7.6419,-3.0659 8.7859,-6.7267 0.18304,-0.73216 0.27456,-1.2355 0.27456,-1.8762 -0.0915,-2.9286 -2.471,-4.2557 -4.9878,-4.2557 -3.249,0 -6.4979,3.432 -8.0538,7.5046 -0.77792,2.105 -1.0982,3.8896 -1.0982,5.3539 -0.0458,4.4387 2.7914,6.864 6.0403,6.864 1.3728,0 2.6083,-0.32032 4.2099,-1.0982 2.288,-1.144 6.3606,-4.0726 8.0995,-7.5962 0.2288,-0.82368 -1.0525,-2.5168 -1.9677,-2.8829 z m -5.3997,-5.5827 c 0.36608,0.50336 0.32032,1.4643 0,2.6083 -0.54912,2.288 -2.5168,3.9811 -4.9878,4.3014 0.18304,-0.54912 0.36608,-1.0067 0.54912,-1.4186 1.1898,-2.5168 2.9744,-4.8506 4.4387,-5.4912 z"
         style="font-variant-ligatures:none;fill:#d7a909;stroke-width:0;stroke-miterlimit:2"
         id="path719957" /><path
         stroke-miterlimit="2"
         d="m 511.2,433.61 c -0.32032,0.59488 -0.64064,1.2355 -1.0067,1.7389 -0.73216,1.0525 -1.7846,2.2422 -3.432,3.1574 -0.77792,-2.4253 -2.1965,-4.759 -2.6083,-7.6877 0.59488,-1.5101 0.96096,-2.9744 1.0982,-4.1642 0.0458,-1.2813 -3.3405,-2.5168 -5.1709,-1.4643 -1.3728,0.77792 -1.9219,2.9286 -1.8762,4.2557 0.13728,4.2099 2.8371,7.047 3.4778,10.616 -2.9744,0.9152 -7.0013,2.5626 -7.0013,5.3539 -0.13728,2.0134 1.8762,3.7981 4.9878,3.7981 4.2557,0 7.1843,-3.5235 7.4589,-7.3216 2.6541,-1.0067 4.3472,-2.6083 5.5827,-4.6218 0.18304,-0.27456 0.32032,-0.54912 0.4576,-0.77792 0.18304,-0.82368 -1.0525,-2.5168 -1.9677,-2.8829 z m -13.362,13.316 c -0.18304,0 -0.41184,0 -0.64064,-0.0458 0.27456,-2.0592 2.3338,-3.0659 4.4845,-3.6608 -0.50336,2.2422 -2.0592,3.615 -3.8438,3.7066 z"
         style="font-variant-ligatures:none;fill:#d7a909;stroke-width:0;stroke-miterlimit:2"
         id="path719959" /><path
         stroke-miterlimit="2"
         d="m 523.36,433.61 c -0.32032,0.59488 -0.64064,1.2355 -1.0067,1.7389 -0.73216,1.0525 -1.7846,2.2422 -3.432,3.1574 -0.77792,-2.4253 -2.1965,-4.759 -2.6083,-7.6877 0.59488,-1.5101 0.96096,-2.9744 1.0982,-4.1642 0.0458,-1.2813 -3.3405,-2.5168 -5.1709,-1.4643 -1.3728,0.77792 -1.9219,2.9286 -1.8762,4.2557 0.13728,4.2099 2.8371,7.047 3.4778,10.616 -2.9744,0.9152 -7.0013,2.5626 -7.0013,5.3539 -0.13728,2.0134 1.8762,3.7981 4.9878,3.7981 4.2557,0 7.1843,-3.5235 7.4589,-7.3216 2.6541,-1.0067 4.3472,-2.6083 5.5827,-4.6218 0.18304,-0.27456 0.32032,-0.54912 0.4576,-0.77792 0.18304,-0.82368 -1.0525,-2.5168 -1.9677,-2.8829 z m -13.362,13.316 c -0.18304,0 -0.41184,0 -0.64064,-0.0458 0.27456,-2.0592 2.3338,-3.0659 4.4845,-3.6608 -0.50336,2.2422 -2.0592,3.615 -3.8438,3.7066 z"
         style="font-variant-ligatures:none;fill:#d7a909;stroke-width:0;stroke-miterlimit:2"
         id="path719961" /><path
         stroke-miterlimit="2"
         d="m 541.69,438.92 c 0.6864,-0.50336 1.2813,-1.0982 1.8304,-1.6931 0.18304,-0.2288 0.32032,-0.4576 0.4576,-0.73216 0.2288,-0.96096 -1.1898,-2.6083 -1.9219,-2.8829 -0.0915,0.13728 -0.18304,0.32032 -0.27456,0.50336 -0.6864,1.144 -1.5558,2.0592 -2.8371,2.8371 -0.54912,0.36608 -1.2813,0.59488 -2.105,0.77792 0.50336,-1.4643 0.82368,-3.0202 0.86944,-4.576 0.0915,-4.2557 -1.0525,-7.6877 -5.2166,-7.6877 -2.1507,0 -3.9811,1.0067 -5.2624,2.7914 -2.7456,0.77792 -4.0726,4.2099 -4.4845,5.6285 -0.59488,1.8762 -0.77792,4.5302 -0.36608,6.4522 0.73216,3.1574 3.2947,4.8506 5.903,4.8506 2.7914,0 5.2166,-1.8762 6.7267,-3.9354 2.3795,-0.13728 4.759,-0.96096 6.681,-2.3338 z m -10.937,2.5626 c -0.64064,0.59488 -1.5558,0.96096 -2.471,0.82368 -0.50336,-0.0915 -1.2355,-0.4576 -1.4186,-1.4643 -0.13728,-0.9152 -0.13728,-1.6931 0.0458,-2.6083 1.0067,1.5558 2.5626,2.4253 4.2557,2.8371 l -0.41184,0.41184 z m 0,-12.492 c 0.4576,-0.41184 1.1898,-0.77792 1.8304,-0.73216 2.3338,0.13728 1.6474,5.4912 1.4186,6.681 -0.13728,0.9152 -0.4576,1.9677 -0.86944,2.9744 -1.7846,-0.32032 -3.8896,-1.6474 -4.4845,-3.8896 0.73216,-1.144 1.6016,-2.2422 2.6541,-3.2947 0.13728,-0.36608 0.0458,-1.144 -0.54912,-1.7389 z"
         style="font-variant-ligatures:none;fill:#d7a909;stroke-width:0;stroke-miterlimit:2"
         id="path719963" /><path
         stroke-miterlimit="2"
         d="m 559.77,433.61 c -1.7389,3.2032 -5.3539,8.3741 -8.3283,8.4656 -0.13728,-2.1507 0.73215,-4.393 1.5558,-6.1776 1.3728,-3.0659 3.2947,-5.9946 3.0659,-7.4589 -0.18305,-1.0982 -1.3728,-2.0134 -4.0726,-2.7914 -0.64064,-0.13728 -1.2813,-0.36608 -1.9219,-0.59488 0.50335,-1.5101 1.0525,-3.1117 0.77792,-4.576 -0.32033,-1.5558 -1.8304,-2.7914 -3.8896,-2.7914 -1.7389,0 -3.2947,1.5558 -3.615,3.4778 -0.32032,2.5168 0.54912,4.1642 2.5626,5.3082 -1.4186,2.9744 -3.1574,6.1776 -3.9811,7.5046 -0.18304,1.0982 1.4643,2.7456 2.0134,2.7456 0.82367,-1.4186 3.1117,-5.0794 4.8506,-8.6944 0.54912,0.27456 0.9152,0.54912 1.0525,0.86944 0.54912,1.327 -3.432,7.5046 -3.432,11.257 0,2.6541 2.0592,4.8048 4.9421,4.8048 1.6016,0 3.1574,-0.73216 3.8438,-1.2355 1.4186,-0.77792 5.1709,-4.5302 6.4979,-7.2301 0.22879,-0.86944 -1.144,-2.5626 -1.9219,-2.8829 z m -12.904,-11.348 c 0.0458,-0.77792 0.32032,-1.5558 1.0067,-1.9219 0.13728,0.36608 0.0915,1.0982 -0.0458,1.5101 -0.13728,0.50336 -0.36608,1.0982 -0.59488,1.5101 -0.2288,-0.32032 -0.36608,-0.73216 -0.36607,-1.0982 z"
         style="font-variant-ligatures:none;fill:#d7a909;stroke-width:0;stroke-miterlimit:2"
         id="path719965" /><path
         stroke-miterlimit="2"
         d="m 566.85,423.45 c 0.50337,0 0.91521,0 1.0525,-0.13728 -0.0458,-0.27456 -0.0458,-0.54912 0,-0.86944 0.18304,-1.0525 0.82368,-2.5168 0.41184,-3.3405 -0.50336,-1.0067 -1.9677,-1.5558 -3.3405,-1.5558 -0.4576,0 -0.86943,0.0458 -1.0525,0.13728 0.18304,0.9152 -0.45761,1.9677 -0.45761,3.249 0,1.6474 1.6474,2.5168 3.3862,2.5168 z m -3.432,21.507 c 1.5558,0 2.8829,-0.86944 3.615,-1.3728 1.5101,-1.144 4.6675,-3.9354 6.2234,-7.0928 0.27456,-0.9152 -1.1898,-2.6083 -1.9219,-2.8829 -1.3728,2.5626 -5.3082,8.4656 -8.008,8.4656 -0.4576,-1.327 0.77792,-4.2557 1.2355,-5.4454 1.144,-3.2032 2.6083,-6.1776 2.6083,-7.9622 0,-1.9219 -2.1507,-2.9286 -4.1642,-2.9286 -0.54912,0 -1.0067,0.0458 -1.1898,0.18304 0.2288,1.3728 -1.0525,3.9811 -2.0592,7.5962 -0.73216,2.6541 -1.7846,6.0403 -0.86944,8.3741 0.73216,1.9219 2.6998,3.0659 4.5302,3.0659 z"
         style="font-variant-ligatures:none;fill:#d7a909;stroke-width:0;stroke-miterlimit:2"
         id="path719967" /><path
         stroke-miterlimit="2"
         d="m 586.48,433.61 c -1.8304,3.5235 -5.8573,8.5114 -11.165,8.6944 -0.4576,-1.327 -0.32032,-3.1117 -0.13728,-3.9811 4.393,-0.27456 7.6419,-3.0659 8.7859,-6.7267 0.18304,-0.73216 0.27456,-1.2355 0.27456,-1.8762 -0.0915,-2.9286 -2.471,-4.2557 -4.9878,-4.2557 -3.249,0 -6.4979,3.432 -8.0538,7.5046 -0.77792,2.105 -1.0982,3.8896 -1.0982,5.3539 -0.0458,4.4387 2.7914,6.864 6.0403,6.864 1.3728,0 2.6083,-0.32032 4.2099,-1.0982 2.288,-1.144 6.3606,-4.0726 8.0995,-7.5962 0.2288,-0.82368 -1.0525,-2.5168 -1.9677,-2.8829 z m -5.3997,-5.5827 c 0.36608,0.50336 0.32032,1.4643 0,2.6083 -0.54912,2.288 -2.5168,3.9811 -4.9878,4.3014 0.18304,-0.54912 0.36608,-1.0067 0.54912,-1.4186 1.1898,-2.5168 2.9744,-4.8506 4.4387,-5.4912 z"
         style="font-variant-ligatures:none;fill:#d7a909;stroke-width:0;stroke-miterlimit:2"
         id="path719969" /><path
         stroke-miterlimit="2"
         d="m 598.79,433.61 c -0.32032,0.59488 -0.64064,1.2355 -1.0067,1.7389 -0.73216,1.0525 -1.7846,2.2422 -3.432,3.1574 -0.77792,-2.4253 -2.1965,-4.759 -2.6083,-7.6877 0.59488,-1.5101 0.96096,-2.9744 1.0982,-4.1642 0.0458,-1.2813 -3.3405,-2.5168 -5.1709,-1.4643 -1.3728,0.77792 -1.9219,2.9286 -1.8762,4.2557 0.13728,4.2099 2.8371,7.047 3.4778,10.616 -2.9744,0.9152 -7.0013,2.5626 -7.0013,5.3539 -0.13728,2.0134 1.8762,3.7981 4.9878,3.7981 4.2557,0 7.1843,-3.5235 7.4589,-7.3216 2.6541,-1.0067 4.3472,-2.6083 5.5827,-4.6218 0.18304,-0.27456 0.32032,-0.54912 0.4576,-0.77792 0.18304,-0.82368 -1.0525,-2.5168 -1.9677,-2.8829 z m -13.362,13.316 c -0.18304,0 -0.41184,0 -0.64064,-0.0458 0.27456,-2.0592 2.3338,-3.0659 4.4845,-3.6608 -0.50336,2.2422 -2.0592,3.615 -3.8438,3.7066 z"
         style="font-variant-ligatures:none;fill:#d7a909;stroke-width:0;stroke-miterlimit:2"
         id="path719971" /><path
         stroke-miterlimit="2"
         class="c1"
         d="m 212,328.22 c -1.4806,-1.0072 -3.8383,-0.80289 -8.7378,5.9751 -3.9544,6.3296 -15.147,31.655 -22.408,43.511 -2.8277,4.6176 -6.5908,7.2067 -10.889,6.2687 1.1999,5.2855 7.0273,6.5149 10.681,4.1584 4.8679,-3.1399 10.215,-11.819 14.989,-21.799 1.7662,-4.2774 10.475,-21.373 13.663,-26.922 3.3779,-5.7789 3.679,-10.392 2.7015,-11.192 z"
         style="font-variant-ligatures:normal;fill:#d7a909;stroke-width:0;stroke-miterlimit:2"
         id="path25" /><path
         stroke-miterlimit="2"
         class="c2"
         d="m 169.96,383.97 c -0.31728,4.3794 2.46,7.8245 6.2607,7.8245 4.685,0 7.4849,-3.056 9.8959,-6.9879 3.5335,-5.7627 6.4723,-11.705 9.513,-18.478 -3.5842,7.5292 -7.9658,13.413 -10.904,16.688 -2.9168,3.2517 -5.8378,4.4111 -8.2653,4.5412 -2.2087,0.1184 -4.8331,-0.682 -6.5005,-3.5883 z"
         style="font-variant-ligatures:normal;fill:#d7a909;stroke-width:0;stroke-miterlimit:2"
         id="path27" /><path
         stroke-miterlimit="2"
         class="c1"
         d="m 215.06,375.21 c -3.7073,2.9669 -3.6955,12.154 -1.6994,12.174 1.7278,0.0174 7.3771,-5.6184 8.5568,-7.102 3.1027,-3.9019 11.462,-16.99 16.002,-23.908 3.4413,-5.5523 6.1045,-7.513 9.4606,-14.283 3.4079,-6.874 7.8442,-19.378 6.6834,-19.729 -10.261,7.8962 -27.141,40.123 -39.003,52.847 z"
         style="font-variant-ligatures:normal;fill:#d7a909;stroke-width:0;stroke-miterlimit:2"
         id="path29" /><path
         stroke-miterlimit="2"
         class="c2"
         d="m 222.89,339.92 c 3.172,-13.69 1.0299,-20.201 -3.6229,-20.201 -6.5928,0 -12.681,8.7729 -16.003,14.478 2.3479,-2.5498 5.2298,-5.1273 6.4452,-5.0672 2.7614,0.13663 -2.9217,20.247 -6.0868,37.683 -2.0034,11.037 -2.3515,24.985 4.4754,24.985 4.2357,0 8.5399,-4.1894 13.827,-11.51 -2.9272,3.2091 -6.6986,5.1875 -7.3289,4.9905 -0.77907,-0.24349 -0.17056,-5.8004 0.47143,-10.063 0.51235,-4.854 7.1708,-32.483 7.8226,-35.296 z"
         style="font-variant-ligatures:normal;fill:#d7a909;stroke-width:0;stroke-miterlimit:2"
         id="path31" /><path
         stroke-miterlimit="2"
         class="c2"
         d="m 268.81,323.84 c -0.8373,-3.2477 -4.0898,-4.1218 -7.4855,-4.1218 -7.8407,0 -13.48,8.3821 -17.078,18.221 -1.7174,4.6953 -3.6016,10.309 -5.3032,15.322 -0.27922,0.82266 -0.58207,1.8029 -1.0224,3.1184 -2.412,7.205 -6.7842,20.604 -7.1425,25.359 -0.47709,6.3312 2.6897,10.059 7.3018,10.059 2.6473,0 4.4978,-0.61522 5.0915,-1.0261 -0.59622,-4.8834 3.0633,-18.121 7.9282,-33.455 4.5522,-14.348 10.066,-29.557 17.71,-33.476 z"
         style="font-variant-ligatures:normal;fill:#d7a909;stroke-width:0;stroke-miterlimit:2"
         id="path33" /><path
         stroke-miterlimit="2"
         class="highlight"
         d="m 215.06,375.21 c -0.64186,4.2624 -1.2504,9.8193 -0.47149,10.063 0.63052,0.197 4.4017,-1.7814 7.3289,-4.9905 3.1028,-3.9019 11.462,-16.99 16.002,-23.908 0.4406,-1.3154 0.74329,-2.2956 1.0226,-3.1183 1.7016,-5.0131 3.5858,-10.627 5.3032,-15.322 1.9403,-5.3053 4.4672,-10.181 7.6196,-13.552 0.31371,-0.33552 0.67846,-0.6987 1.0481,-1.0412 0.19259,-0.17845 0.40023,-0.36056 0.5734,-0.51042 -0.22757,0.19368 -0.5785,0.49665 -0.81744,0.71526 -0.28023,0.25638 -0.56191,0.52829 -0.8432,0.80823 -3.8948,3.8761 -8.5026,10.362 -13.322,17.573 -7.9885,11.952 -16.56,25.9 -23.444,33.284 z"
         style="font-variant-ligatures:normal;opacity:0;stroke-width:0;stroke-miterlimit:2"
         id="path46" /><path
         stroke-miterlimit="2"
         class="highlight"
         d="m 209.7,329.12 c -1.2153,-0.0601 -4.0973,2.5173 -6.4453,5.0672 -3.9543,6.3296 -15.147,31.655 -22.407,43.511 -2.8279,4.6176 -6.5907,7.2066 -10.889,6.2686 1.6674,2.9064 4.2918,3.7067 6.5005,3.5884 2.4276,-0.13013 5.3485,-1.2895 8.2653,-4.5412 2.9378,-3.2752 7.3195,-9.1591 10.904,-16.688 1.7658,-4.2767 10.472,-21.368 13.661,-26.919 1.1819,-6.1008 1.6548,-10.225 0.41056,-10.287 z"
         style="font-variant-ligatures:normal;opacity:0;stroke-width:0;stroke-miterlimit:2"
         id="path59" /><path
         stroke-miterlimit="2"
         class="highlight"
         d="m 169.96,383.97 c -0.31728,4.3794 2.46,7.8245 6.2607,7.8245 4.685,0 7.4849,-3.056 9.8959,-6.9879 3.5335,-5.7627 6.4723,-11.705 9.513,-18.478 -3.5842,7.5292 -7.9658,13.413 -10.904,16.688 -2.9168,3.2517 -5.8378,4.4111 -8.2653,4.5412 -2.2087,0.1184 -4.8331,-0.682 -6.5005,-3.5883 z"
         style="font-variant-ligatures:normal;opacity:0;stroke-width:0;stroke-miterlimit:2"
         id="path66" /><path
         stroke-miterlimit="2"
         class="highlight"
         d="m 222.89,339.92 c 3.172,-13.69 1.0299,-20.201 -3.6229,-20.201 -6.5928,0 -12.681,8.7729 -16.003,14.478 2.3479,-2.5498 5.2298,-5.1273 6.4452,-5.0672 2.7614,0.13663 -2.9217,20.247 -6.0868,37.683 -2.0034,11.037 -2.3515,24.985 4.4754,24.985 4.2357,0 8.5399,-4.1894 13.827,-11.51 -2.9272,3.2091 -6.6986,5.1875 -7.3289,4.9905 -0.77907,-0.24349 -0.17056,-5.8004 0.47143,-10.063 0.51235,-4.854 7.1708,-32.483 7.8226,-35.296 z"
         style="font-variant-ligatures:normal;opacity:0;stroke-width:0;stroke-miterlimit:2"
         id="path79" /><path
         stroke-miterlimit="2"
         class="highlight"
         d="m 268.81,323.84 c -0.8373,-3.2477 -4.0898,-4.1218 -7.4855,-4.1218 -7.8407,0 -13.48,8.3821 -17.078,18.221 -1.7174,4.6953 -3.6016,10.309 -5.3032,15.322 -0.27922,0.82266 -0.58207,1.8029 -1.0224,3.1184 -2.412,7.205 -6.7842,20.604 -7.1425,25.359 -0.47709,6.3312 2.6897,10.059 7.3018,10.059 2.6473,0 4.4978,-0.61522 5.0915,-1.0261 -0.59622,-4.8834 3.0633,-18.121 7.9282,-33.455 4.5522,-14.348 10.066,-29.557 17.71,-33.476 z"
         style="font-variant-ligatures:normal;opacity:0;stroke-width:0;stroke-miterlimit:2"
         id="path92" /><path
         stroke-miterlimit="2"
         class="c1"
         d="m 343.85,327.13 c -0.48491,3.6267 -6.6162,20.501 -10.28,30.753 -0.90022,2.5192 -1.6533,4.4705 -2.1375,5.9232 -0.88876,3.5419 -5.1701,18.194 -2.1888,22.546 2.4126,3.5212 7.7806,3.9814 10.487,1.0143 -3.6668,-1.7495 -3.4609,-4.7743 -2.8809,-9.0608 0.43026,-3.1796 1.8753,-8.2175 2.7793,-11.325 0.97054,-3.3363 2.1719,-6.8881 3.3989,-10.505 2.6292,-7.7508 5.4751,-15.61 7.1177,-20.945 1.9711,-6.4021 2.7608,-14.286 -1.4166,-13.767 -3.6128,0.4489 -4.8702,4.8235 -4.8787,5.3668 z"
         style="font-variant-ligatures:normal;fill:#d7a909;stroke-width:0;stroke-miterlimit:2"
         id="path95" /><path
         stroke-miterlimit="2"
         class="c2"
         d="m 339.73,387.37 c -0.75727,1.898 -3.6521,4.4287 -7.5229,4.4275 -3.6364,-0.001 -5.7424,-3.0384 -5.7627,-6.7384 -0.018,-3.2997 2.2574,-12.005 4.1235,-18.181 0.34538,-1.143 0.575,-2.1497 0.86415,-3.0682 -1.0513,5.2652 -5.0434,19.892 -0.42727,22.996 1.857,1.2487 5.2308,2.361 8.7252,0.56401 z"
         style="font-variant-ligatures:normal;fill:#d7a909;stroke-width:0;stroke-miterlimit:2"
         id="path97" /><path
         stroke-miterlimit="2"
         class="c1"
         d="m 287.12,380.68 c 0,-4.1034 5.3659,-10.932 17.802,-13.069 1.856,-0.31908 3.8118,-0.5238 5.9915,-0.60978 3.205,-0.12642 10.888,-0.41133 12.853,-0.35609 18.066,0.1084 25.862,-4.8594 28.017,-7.7216 2.1552,-2.8622 4.5309,-6.2272 3.399,-8.1041 -8.5879,6.9916 -20.243,7.2355 -39.007,8.2553 -2.4228,0.13171 -4.7126,0.37867 -7.2267,0.70338 -14.675,1.8952 -29.838,7.4612 -30.071,21.587 0.4664,3.2537 1.6486,5.1933 4.8649,6.5719 0.95235,0.40822 2.796,0.85038 3.6454,0.73149 1.8976,-0.26555 5.7071,-2.831 8.5216,-6.9261 -1.1742,1.0508 -2.813,2.0483 -4.6708,2.1799 -0.53169,0.0376 -1.1651,0.0253 -1.7276,-0.0974 -0.4105,-0.0895 -0.77435,-0.24124 -1.0774,-0.45888 -0.8591,-0.61708 -1.3127,-1.5694 -1.3127,-2.6856 z"
         style="font-variant-ligatures:normal;fill:#d7a909;stroke-width:0;stroke-miterlimit:2"
         id="path99" /><path
         stroke-miterlimit="2"
         class="c2"
         d="m 350.15,335.53 c 2.0501,-6.458 4.3185,-16.742 -2.4131,-16.742 -10.094,0 -21.385,10.242 -31.794,27.992 -2.7216,4.6407 -4.9524,8.9916 -6.9891,12.993 -1.8842,3.7023 -2.4774,4.8262 -4.0256,7.8332 -1.4294,2.7763 -2.7944,5.4228 -4.1934,7.7786 -1.5405,2.5941 -2.9787,4.7089 -4.82,6.3529 -8.4301,7.5265 -15.77,5.2374 -17.033,-0.37729 -0.21743,6.3079 5.3392,10.432 11.033,10.432 13.311,0 22.998,-12.462 29.581,-23.755 1.778,-3.0499 3.2688,-6.0022 4.6061,-8.604 4.366,-8.4945 13.261,-25.328 19.752,-32.304 2.2674,-2.4363 4.2409,-3.7854 5.9671,-3.7274 2.2125,0.0743 1.7241,7.4723 0.32818,12.128 z"
         style="font-variant-ligatures:normal;fill:#d7a909;stroke-width:0;stroke-miterlimit:2"
         id="path101" /><path
         stroke-miterlimit="2"
         class="c2"
         d="m 355.19,350.81 c 1.1344,0.41205 2.0808,2.701 1.6575,5.2074 -0.4151,2.458 -1.8064,5.2757 -4.4968,7.2859 -1.249,0.93322 -2.839,1.7942 -4.6312,2.3946 -2.4341,0.81536 -5.2077,1.2144 -8.0841,1.2783 -2.9222,0.0649 -5.944,0.0209 -9.0604,-0.10596 -2.245,-0.0914 -4.5863,-0.17615 -6.8168,-0.23448 8.353,-0.19471 13.718,-1.462 20.447,-4.4269 5.3787,-2.3698 9.4151,-6.8359 10.985,-11.399 z"
         style="font-variant-ligatures:normal;fill:#d7a909;stroke-width:0;stroke-miterlimit:2"
         id="path103" /><path
         stroke-miterlimit="2"
         class="highlight"
         d="m 295.77,381.86 c -0.10826,0.0842 -0.24726,0.21434 -0.41628,0.34032 -0.14729,0.10983 -0.30318,0.23015 -0.46348,0.33977 -0.24901,0.17027 -0.499,0.32135 -0.66903,0.41858 -0.88641,0.5068 -1.8961,0.88026 -2.9822,0.95718 -0.53172,0.0376 -1.165,0.0253 -1.7276,-0.0974 -0.4104,-0.0895 -0.77435,-0.24124 -1.0772,-0.45892 -0.85919,-0.61699 -1.3129,-1.5694 -1.3129,-2.6856 0,-4.1033 5.3658,-10.932 17.802,-13.069 1.5482,-3.0069 2.1413,-4.1308 4.0254,-7.8328 -14.674,1.8954 -29.837,7.4614 -30.071,21.587 1.8e-4,0.001 7e-4,0.003 8.8e-4,0.006 0.64987,2.8818 2.9193,4.9354 6.204,5.1441 0.73189,0.0465 1.5202,-5.4e-4 2.3395,-0.14949 2.1694,-0.39438 4.6082,-1.5083 7.185,-3.5294 0.25363,-0.1989 0.89665,-0.72087 1.1625,-0.96889 z"
         style="font-variant-ligatures:normal;opacity:0;stroke-width:0;stroke-miterlimit:2"
         id="path110" /><path
         stroke-miterlimit="2"
         class="highlight"
         d="m 295.77,381.86 c -0.10936,0.0851 -0.24527,0.21291 -0.41628,0.34032 -0.15164,0.11297 -0.31384,0.23775 -0.47934,0.35062 -0.2444,0.16667 -0.48842,0.31357 -0.65461,0.40856 -0.88607,0.50637 -1.8953,0.87947 -2.9807,0.95635 -0.53172,0.0376 -1.165,0.0253 -1.7276,-0.0974 -0.4104,-0.0895 -0.77435,-0.24124 -1.0772,-0.45892 -0.85919,-0.61699 -1.3129,-1.5694 -1.3129,-2.6856 0,-4.1033 5.3658,-10.932 17.802,-13.069 1.5482,-3.0069 2.1413,-4.1308 4.0254,-7.8328 -14.674,1.8954 -29.837,7.4614 -30.071,21.587 1.8e-4,0.001 7e-4,0.003 8.8e-4,0.006 0.65508,2.9049 2.9429,4.9341 6.204,5.1441 0.73313,0.0472 1.5192,-3.8e-4 2.3395,-0.14949 2.1722,-0.39479 4.6171,-1.5114 7.199,-3.5404 0.24764,-0.19457 0.88933,-0.72104 1.1485,-0.95789 z"
         style="font-variant-ligatures:normal;opacity:0;stroke-width:0;stroke-miterlimit:2"
         id="path119" /><path
         stroke-miterlimit="2"
         class="highlight"
         d="m 343.03,356.47 c 2.6275,-7.7458 5.4752,-15.611 7.1168,-20.942 1.3958,-4.6555 1.8842,-12.054 -0.32817,-12.128 -1.7262,-0.058 -3.6998,1.2911 -5.9672,3.7275 -0.48493,3.6267 -6.6162,20.501 -10.28,30.753 -0.007,0.0216 -0.0166,0.0463 -0.0242,0.0678 0.65193,-0.0645 1.2946,-0.13328 1.923,-0.20591 2.7264,-0.31537 5.2344,-0.72166 7.5598,-1.2727 z"
         style="font-variant-ligatures:normal;opacity:0;stroke-width:0;stroke-miterlimit:2"
         id="path132" /><path
         stroke-miterlimit="2"
         class="highlight"
         d="m 344.2,362.21 c 5.3787,-2.3698 9.4151,-6.8359 10.985,-11.399 -5.1654,4.2052 -11.445,5.971 -19.715,6.9308 -0.63604,0.0738 -1.2628,0.141 -1.923,0.20591 -2.7766,0.27307 -5.791,0.4762 -9.0252,0.66339 -0.14071,0.27284 -0.29012,0.5613 -0.42278,0.8193 -1.1371,2.2121 -2.3971,4.6833 -3.8382,7.2467 1.544,-0.0386 2.8363,-0.0585 3.4954,-0.0405 8.351,-0.19508 13.715,-1.4623 20.443,-4.4268 z"
         style="font-variant-ligatures:normal;opacity:0;stroke-width:0;stroke-miterlimit:2"
         id="path139" /><path
         stroke-miterlimit="2"
         class="highlight"
         d="m 331.01,386.8 c 1.857,1.2487 5.2309,2.361 8.7252,0.56401 -3.6668,-1.7495 -3.461,-4.7743 -2.881,-9.0607 0.43028,-3.1795 1.8753,-8.2175 2.7794,-11.325 -2.8586,0.0635 -5.8155,0.02 -8.8598,-0.10053 -1.4242,6.4785 -3.6623,17.301 0.2362,19.922 z"
         style="font-variant-ligatures:normal;opacity:0;stroke-width:0;stroke-miterlimit:2"
         id="path152" /><path
         stroke-miterlimit="2"
         class="highlight"
         d="m 344.2,362.21 c 5.3787,-2.3698 9.4151,-6.8359 10.985,-11.399 -4.8502,3.9486 -10.687,5.7445 -18.227,6.7435 -0.49152,0.0651 -0.98114,0.12856 -1.4873,0.18723 -0.6367,0.0739 -1.2619,0.14086 -1.923,0.20591 -2.7759,0.27288 -5.7935,0.47634 -9.0252,0.66339 -0.14071,0.27284 -0.29012,0.5613 -0.42278,0.8193 -1.1371,2.2121 -2.3971,4.6833 -3.8382,7.2467 1.544,-0.0386 2.8363,-0.0585 3.4954,-0.0405 8.351,-0.19508 13.715,-1.4623 20.443,-4.4268 z"
         style="font-variant-ligatures:normal;opacity:0;stroke-width:0;stroke-miterlimit:2"
         id="path161" /><path
         stroke-miterlimit="2"
         class="highlight"
         d="m 339.73,387.37 c -0.75727,1.898 -3.6521,4.4287 -7.5229,4.4275 -3.6364,-0.001 -5.7424,-3.0384 -5.7627,-6.7384 -0.018,-3.2997 2.2574,-12.005 4.1235,-18.181 l 0.19971,0.007 c -1.4245,6.4808 -3.6574,17.302 0.23717,19.92 1.857,1.2487 5.2308,2.361 8.7252,0.564 z"
         style="font-variant-ligatures:normal;opacity:0;stroke-width:0;stroke-miterlimit:2"
         id="path168" /><path
         stroke-miterlimit="2"
         class="highlight"
         d="m 350.15,335.53 c 2.0501,-6.458 4.3185,-16.742 -2.4131,-16.742 -10.094,0 -21.385,10.242 -31.794,27.992 -2.7216,4.6407 -4.9524,8.9916 -6.9891,12.993 -1.8842,3.7023 -2.4774,4.8262 -4.0256,7.8332 -1.4294,2.7763 -2.7944,5.4228 -4.1934,7.7786 -1.5405,2.5941 -2.9787,4.7089 -4.82,6.3529 -8.4301,7.5265 -15.77,5.2374 -17.033,-0.37729 -0.21743,6.3079 5.3392,10.432 11.033,10.432 13.311,0 22.998,-12.462 29.581,-23.755 1.778,-3.0499 3.2688,-6.0022 4.6061,-8.604 4.366,-8.4945 13.261,-25.328 19.752,-32.304 2.2674,-2.4363 4.2409,-3.7854 5.9671,-3.7274 2.2125,0.0743 1.7241,7.4723 0.32818,12.128 z"
         style="font-variant-ligatures:normal;opacity:0;stroke-width:0;stroke-miterlimit:2"
         id="path181" /><path
         stroke-miterlimit="2"
         class="highlight"
         d="m 355.19,350.81 c 1.1344,0.41205 2.0808,2.701 1.6575,5.2074 -0.4151,2.458 -1.8064,5.2757 -4.4968,7.2859 -1.249,0.93322 -2.839,1.7942 -4.6312,2.3946 -2.4341,0.81536 -5.2077,1.2144 -8.0841,1.2783 -2.9222,0.0649 -5.944,0.0209 -9.0604,-0.10596 -2.245,-0.0914 -4.5863,-0.17615 -6.8168,-0.23448 8.353,-0.19471 13.718,-1.462 20.447,-4.4269 5.3787,-2.3698 9.4151,-6.8359 10.985,-11.399 z"
         style="font-variant-ligatures:normal;opacity:0;stroke-width:0;stroke-miterlimit:2"
         id="path188" /><path
         stroke-miterlimit="2"
         class="c1"
         d="m 483.99,321.6 c -9.1474,0 -17.837,7.6627 -23.596,14.626 -5.5007,6.5094 -15.659,20.841 -20.013,28.375 -0.68401,1.1838 -1.236,2.3 -1.7749,3.3494 -3.5265,7.4408 -3.2986,12.225 -3.5764,15.364 -0.32959,3.7234 1.2602,7.1115 1.7533,7.5506 0.23516,-7.0798 15.403,-33.292 27.319,-46.963 8.4066,-9.6447 14.398,-17.702 23.038,-17.702 1.6534,0 3.1439,0.50379 4.2074,1.6477 0.001,-2.2093 -1.0806,-6.2478 -7.3579,-6.2478 z"
         style="font-variant-ligatures:normal;fill:#d7a909;stroke-width:0;stroke-miterlimit:2"
         id="path191" /><path
         stroke-miterlimit="2"
         class="c2"
         d="m 484.77,319.71 c 5.2296,0 8.0022,3.4779 6.5752,8.1351 -0.45929,-2.3271 -2.5276,-4.6111 -7.4656,-4.9009 -6.1339,-0.35998 -15.568,3.6798 -23.488,13.279 8.914,-11.009 16.456,-16.513 24.379,-16.513 z"
         style="font-variant-ligatures:normal;fill:#d7a909;stroke-width:0;stroke-miterlimit:2"
         id="path193" /><path
         stroke-miterlimit="2"
         class="c1"
         d="m 410.31,390.77 c 0.27089,-3.1345 1.4349,-7.7924 3.4016,-12.158 5.5862,-12.4 11.968,-20.378 16.168,-27.172 0.63642,-1.0295 11.852,-19.765 11.313,-22.024 -5.7673,3.0124 -21.034,21.851 -26.595,32.144 -0.82505,1.7158 -5.2083,11.436 -5.9566,16.501 -0.96844,6.5549 0.68863,12.706 1.6693,12.709 z"
         style="font-variant-ligatures:normal;fill:#d7a909;stroke-width:0;stroke-miterlimit:2"
         id="path195" /><path
         stroke-miterlimit="2"
         class="c2"
         d="m 451.5,331.66 c -0.6691,-1.1962 -3.2362,-2.9868 -6.7498,-2.9868 -7.4477,0 -11.088,8.565 -13.268,16.752 -0.45978,1.7269 -1.0196,3.6943 -1.6065,6.0142 -2.254,8.9086 -3.7308,18.303 -4.4254,26.432 -0.52975,6.1988 -0.50385,13.967 6.4846,13.923 2.9884,-0.0186 4.2881,-0.57453 4.8482,-0.92672 -1.0656,-4.3485 1.3031,-14.549 3.5979,-26.264 0.28262,-1.4428 0.63555,-2.9714 0.90669,-4.4517 1.1582,-6.3233 2.3459,-12.314 3.8968,-17.079 1.8823,-5.7843 4.1587,-9.6908 6.3151,-11.412 z"
         style="font-variant-ligatures:normal;fill:#d7a909;stroke-width:0;stroke-miterlimit:2"
         id="path197" /><path
         stroke-miterlimit="2"
         class="c1"
         d="m 403.99,321.74 c -3.6415,2.2075 -7.674,5.7352 -11.079,11.462 -2.5899,4.961 -5.0971,11.794 -4.1284,19.686 0.72171,5.8793 5.6288,7.5025 8.6604,6.4721 -2.9346,-2.6607 -2.3871,-7.3246 -1.8404,-11.154 0.99834,-6.9928 5.1578,-14.968 11.055,-19.46 0.79428,-0.60499 2.6651,-1.6836 3.4489,-1.2069 0.5113,0.311 0.39952,1.9377 0.20846,3.2049 0.56403,-0.30267 1.9078,-6.3984 1.4937,-8.0809 -0.48427,-1.9674 -2.1977,-3.1973 -7.8181,-0.92349 z"
         style="font-variant-ligatures:normal;fill:#d7a909;stroke-width:0;stroke-miterlimit:2"
         id="path199" /><path
         stroke-miterlimit="2"
         class="c2"
         d="m 397.44,359.36 c -1.2112,1.0299 -2.9512,1.464 -4.611,1.4348 -0.53828,-0.01 -1.0861,-0.13657 -1.543,-0.30642 -2.8161,-1.0469 -4.149,-4.7409 -4.0399,-8.8478 0.13485,-5.0757 1.7262,-11.555 5.662,-18.438 -3.6548,7.9408 -4.7286,16.15 -2.6732,21.403 1.1582,2.9598 3.9026,4.8121 7.2051,4.7547 z"
         style="font-variant-ligatures:normal;fill:#d7a909;stroke-width:0;stroke-miterlimit:2"
         id="path201" /><path
         stroke-miterlimit="2"
         class="c2"
         d="m 411.09,319.72 c -1.6575,0 -4.3983,0.41779 -7.0982,2.0256 3.5281,-1.311 5.6816,-0.85629 6.5878,0.53268 0.75366,1.1552 0.40673,4.6987 -0.26334,8.4717 -0.40718,2.2928 -0.93371,4.6702 -1.4051,6.648 -4.4864,18.823 -8.2334,27.885 -10.537,42.452 -0.10388,0.65693 -0.17696,1.3769 -0.20825,1.9924 -0.30728,6.046 2.7438,9.9551 7.1029,9.9551 2.8888,0 4.5966,-0.8154 5.0401,-1.0248 -0.78591,-1.8281 -1.1194,-5.7974 -0.39497,-10.092 2.7531,-16.324 11.539,-33.51 12.116,-48.865 0.26386,-7.0266 -3.5537,-12.096 -10.94,-12.096 z"
         style="font-variant-ligatures:normal;fill:#d7a909;stroke-width:0;stroke-miterlimit:2"
         id="path203" /><path
         stroke-miterlimit="2"
         class="highlight"
         d="m 483.88,322.95 c -6.1341,-0.35995 -15.568,3.6798 -23.488,13.279 -5.5008,6.5094 -15.659,20.841 -20.013,28.375 v 2.6e-4 c -2.2951,11.715 -4.6636,21.915 -3.598,26.264 0.2353,-7.0797 15.403,-33.292 27.319,-46.963 8.4068,-9.6447 14.398,-17.702 23.039,-17.702 1.6534,0 3.1442,0.50377 4.2076,1.6477 -0.45943,-2.327 -2.5276,-4.6111 -7.4656,-4.9009 z"
         style="font-variant-ligatures:normal;opacity:0;stroke-width:0;stroke-miterlimit:2"
         id="path216" /><path
         stroke-miterlimit="2"
         class="highlight"
         d="m 395.6,348.21 c 0.99849,-6.9927 5.1579,-14.968 11.055,-19.46 0.79459,-0.60504 2.6652,-1.6836 3.449,-1.2069 0.51147,0.31107 0.39974,1.9377 0.20842,3.2049 v -8e-5 c 0.67032,-3.773 1.017,-7.3164 0.26324,-8.4716 -0.90597,-1.389 -3.0593,-1.8437 -6.5876,-0.53267 -3.6417,2.2075 -7.674,5.7352 -11.079,11.462 -3.655,7.9408 -4.7285,16.15 -2.6732,21.403 1.1584,2.9598 3.9025,4.8121 7.2052,4.7548 -2.9347,-2.6608 -2.3873,-7.3246 -1.8406,-11.154 z"
         style="font-variant-ligatures:normal;opacity:0;stroke-width:0;stroke-miterlimit:2"
         id="path229" /><path
         stroke-miterlimit="2"
         class="highlight"
         d="m 415.47,360 c -0.44466,1.3884 -0.89125,2.7869 -1.3263,4.1778 -1.7298,5.5304 -3.3148,11.059 -4.232,16.496 -0.72408,4.2949 -0.39067,8.2641 0.39521,10.092 0.27091,-3.1344 1.4349,-7.7924 3.4015,-12.158 5.5863,-12.4 11.968,-20.378 16.168,-27.172 0.58688,-2.3199 1.1469,-4.2873 1.6063,-6.0142 0.99083,-3.7217 2.4062,-7.9912 4.5258,-11.245 0.42098,-0.64616 0.87968,-1.284 1.4088,-1.8845 -2.4032,2.1909 -5.1617,5.2307 -7.2908,7.7063 -4.8371,5.6245 -10.94,13.629 -14.656,20.001 z"
         style="font-variant-ligatures:normal;opacity:0;stroke-width:0;stroke-miterlimit:2"
         id="path242" /><path
         stroke-miterlimit="2"
         class="highlight"
         d="m 484.77,319.71 c 5.2296,0 8.0022,3.4779 6.5752,8.1351 -0.45929,-2.3271 -2.5276,-4.6111 -7.4656,-4.9009 -6.1339,-0.35998 -15.568,3.6798 -23.488,13.279 8.914,-11.009 16.456,-16.513 24.379,-16.513 z"
         style="font-variant-ligatures:normal;opacity:0;stroke-width:0;stroke-miterlimit:2"
         id="path249" /><path
         stroke-miterlimit="2"
         class="highlight"
         d="m 451.5,331.66 c -0.66891,-1.1963 -3.2357,-2.9873 -6.7493,-2.9879 -2.2984,-3.6e-4 -4.2418,0.81701 -5.888,2.1887 -0.81164,0.67635 -1.5496,1.4899 -2.225,2.4018 -1.3597,1.8362 -2.4599,4.0876 -3.3719,6.4978 -0.69325,1.832 -1.2777,3.755 -1.7855,5.6614 -0.43445,1.6308 -0.98717,3.5639 -1.6075,6.014 -1.8452,7.2882 -3.1713,14.93 -3.9733,21.91 -0.17827,1.5514 -0.32974,3.0429 -0.4563,4.5211 -0.53073,6.1988 -0.50607,13.967 6.4824,13.924 2.9884,-0.018 4.293,-0.5736 4.8532,-0.92569 -1.0649,-4.3486 1.3005,-14.549 3.5972,-26.264 0.28285,-1.4427 0.63603,-2.9713 0.90739,-4.4515 1.1592,-6.3231 2.3478,-12.313 3.8995,-17.079 1.8833,-5.784 4.1603,-9.6902 6.317,-11.411 z"
         style="font-variant-ligatures:normal;opacity:0;stroke-width:0;stroke-miterlimit:2"
         id="path262" /><path
         stroke-miterlimit="2"
         class="highlight"
         d="m 397.44,359.36 c -1.2112,1.0299 -2.9512,1.464 -4.611,1.4348 -0.53828,-0.01 -1.0861,-0.13657 -1.543,-0.30642 -2.8161,-1.0469 -4.149,-4.7409 -4.0399,-8.8478 0.13485,-5.0757 1.7262,-11.555 5.662,-18.438 -3.6548,7.9408 -4.7286,16.15 -2.6732,21.403 1.1582,2.9598 3.9026,4.8121 7.2051,4.7547 z"
         style="font-variant-ligatures:normal;opacity:0;stroke-width:0;stroke-miterlimit:2"
         id="path269" /><path
         stroke-miterlimit="2"
         class="highlight"
         d="m 411.09,319.72 c -1.6575,0 -4.3983,0.41779 -7.0982,2.0256 3.5281,-1.311 5.6816,-0.85629 6.5878,0.53268 0.75366,1.1552 0.40673,4.6987 -0.26334,8.4717 -0.40718,2.2928 -0.93371,4.6702 -1.4051,6.648 -4.4864,18.823 -8.2334,27.885 -10.537,42.452 -0.10388,0.65693 -0.17696,1.3769 -0.20825,1.9924 -0.30728,6.046 2.7438,9.9551 7.1029,9.9551 2.8888,0 4.5966,-0.8154 5.0401,-1.0248 -0.78591,-1.8281 -1.1194,-5.7974 -0.39497,-10.092 2.7531,-16.324 11.539,-33.51 12.116,-48.865 0.26386,-7.0266 -3.5537,-12.096 -10.94,-12.096 z"
         style="font-variant-ligatures:normal;opacity:0;stroke-width:0;stroke-miterlimit:2"
         id="path282" /><path
         stroke-miterlimit="2"
         class="c1"
         d="m 547.45,327.13 c -0.48491,3.6267 -6.6162,20.501 -10.28,30.753 -0.90022,2.5192 -1.6533,4.4705 -2.1375,5.9232 -0.88876,3.5419 -5.1701,18.194 -2.1888,22.546 2.4126,3.5212 7.7806,3.9814 10.487,1.0143 -3.6668,-1.7495 -3.4609,-4.7743 -2.8809,-9.0608 0.43026,-3.1796 1.8753,-8.2175 2.7793,-11.325 0.97054,-3.3363 2.1719,-6.8881 3.3989,-10.505 2.6292,-7.7508 5.4751,-15.61 7.1177,-20.945 1.9711,-6.4021 2.7608,-14.286 -1.4166,-13.767 -3.6128,0.4489 -4.8702,4.8235 -4.8787,5.3668 z"
         style="font-variant-ligatures:normal;fill:#d7a909;stroke-width:0;stroke-miterlimit:2"
         id="path285" /><path
         stroke-miterlimit="2"
         class="c2"
         d="m 543.33,387.37 c -0.75727,1.898 -3.6521,4.4287 -7.5229,4.4275 -3.6364,-0.001 -5.7424,-3.0384 -5.7627,-6.7384 -0.018,-3.2997 2.2574,-12.005 4.1235,-18.181 0.34538,-1.143 0.575,-2.1497 0.86415,-3.0682 -1.0513,5.2652 -5.0434,19.892 -0.42727,22.996 1.857,1.2487 5.2308,2.361 8.7252,0.56401 z"
         style="font-variant-ligatures:normal;fill:#d7a909;stroke-width:0;stroke-miterlimit:2"
         id="path287" /><path
         stroke-miterlimit="2"
         class="c1"
         d="m 490.72,380.68 c 0,-4.1034 5.3659,-10.932 17.802,-13.069 1.856,-0.31908 3.8118,-0.5238 5.9915,-0.60978 3.205,-0.12642 10.888,-0.41133 12.853,-0.35609 18.066,0.1084 25.862,-4.8594 28.017,-7.7216 2.1552,-2.8622 4.5309,-6.2272 3.399,-8.1041 -8.5879,6.9916 -20.243,7.2355 -39.007,8.2553 -2.4228,0.13171 -4.7126,0.37867 -7.2267,0.70338 -14.675,1.8952 -29.838,7.4612 -30.071,21.587 0.4664,3.2537 1.6486,5.1933 4.8649,6.5719 0.95235,0.40822 2.796,0.85038 3.6454,0.73149 1.8976,-0.26555 5.7071,-2.831 8.5216,-6.9261 -1.1742,1.0508 -2.813,2.0483 -4.6708,2.1799 -0.53169,0.0376 -1.1651,0.0253 -1.7276,-0.0974 -0.4105,-0.0895 -0.77435,-0.24124 -1.0774,-0.45888 -0.8591,-0.61708 -1.3127,-1.5694 -1.3127,-2.6856 z"
         style="font-variant-ligatures:normal;fill:#d7a909;stroke-width:0;stroke-miterlimit:2"
         id="path289" /><path
         stroke-miterlimit="2"
         class="c2"
         d="m 553.74,335.53 c 2.0501,-6.458 4.3185,-16.742 -2.4131,-16.742 -10.094,0 -21.385,10.242 -31.794,27.992 -2.7216,4.6407 -4.9524,8.9916 -6.9891,12.993 -1.8842,3.7023 -2.4774,4.8262 -4.0256,7.8332 -1.4294,2.7763 -2.7944,5.4228 -4.1934,7.7786 -1.5405,2.5941 -2.9787,4.7089 -4.82,6.3529 -8.4301,7.5265 -15.77,5.2374 -17.033,-0.37729 -0.21743,6.3079 5.3392,10.432 11.033,10.432 13.311,0 22.998,-12.462 29.581,-23.755 1.778,-3.0499 3.2688,-6.0022 4.6061,-8.604 4.366,-8.4945 13.261,-25.328 19.752,-32.304 2.2674,-2.4363 4.2409,-3.7854 5.9671,-3.7274 2.2125,0.0743 1.7241,7.4723 0.32818,12.128 z"
         style="font-variant-ligatures:normal;fill:#d7a909;stroke-width:0;stroke-miterlimit:2"
         id="path291" /><path
         stroke-miterlimit="2"
         class="c2"
         d="m 558.78,350.81 c 1.1344,0.41205 2.0808,2.701 1.6575,5.2074 -0.4151,2.458 -1.8064,5.2757 -4.4968,7.2859 -1.249,0.93322 -2.839,1.7942 -4.6312,2.3946 -2.4341,0.81536 -5.2077,1.2144 -8.0841,1.2783 -2.9222,0.0649 -5.944,0.0209 -9.0604,-0.10596 -2.245,-0.0914 -4.5863,-0.17615 -6.8168,-0.23448 8.353,-0.19471 13.718,-1.462 20.447,-4.4269 5.3787,-2.3698 9.4151,-6.8359 10.985,-11.399 z"
         style="font-variant-ligatures:normal;fill:#d7a909;stroke-width:0;stroke-miterlimit:2"
         id="path293" /><path
         stroke-miterlimit="2"
         class="highlight"
         d="m 499.37,381.86 c -0.10826,0.0842 -0.24726,0.21434 -0.41628,0.34032 -0.14729,0.10983 -0.30318,0.23015 -0.46348,0.33977 -0.24901,0.17027 -0.499,0.32135 -0.66903,0.41858 -0.88641,0.5068 -1.8961,0.88026 -2.9822,0.95718 -0.53172,0.0376 -1.165,0.0253 -1.7276,-0.0974 -0.4104,-0.0895 -0.77435,-0.24124 -1.0772,-0.45892 -0.85919,-0.61699 -1.3129,-1.5694 -1.3129,-2.6856 0,-4.1033 5.3658,-10.932 17.802,-13.069 1.5482,-3.0069 2.1413,-4.1308 4.0254,-7.8328 -14.674,1.8954 -29.837,7.4614 -30.071,21.587 1.8e-4,0.001 7e-4,0.003 8.8e-4,0.006 0.64987,2.8818 2.9193,4.9354 6.204,5.1441 0.73189,0.0465 1.5202,-5.4e-4 2.3395,-0.14949 2.1694,-0.39438 4.6082,-1.5083 7.185,-3.5294 0.25363,-0.1989 0.89665,-0.72087 1.1625,-0.96889 z"
         style="font-variant-ligatures:normal;opacity:0;stroke-width:0;stroke-miterlimit:2"
         id="path300" /><path
         stroke-miterlimit="2"
         class="highlight"
         d="m 499.37,381.86 c -0.10936,0.0851 -0.24527,0.21291 -0.41628,0.34032 -0.15164,0.11297 -0.31384,0.23775 -0.47934,0.35062 -0.2444,0.16667 -0.48842,0.31357 -0.65461,0.40856 -0.88607,0.50637 -1.8953,0.87947 -2.9807,0.95635 -0.53172,0.0376 -1.165,0.0253 -1.7276,-0.0974 -0.4104,-0.0895 -0.77435,-0.24124 -1.0772,-0.45892 -0.85919,-0.61699 -1.3129,-1.5694 -1.3129,-2.6856 0,-4.1033 5.3658,-10.932 17.802,-13.069 1.5482,-3.0069 2.1413,-4.1308 4.0254,-7.8328 -14.674,1.8954 -29.837,7.4614 -30.071,21.587 1.8e-4,0.001 7e-4,0.003 8.8e-4,0.006 0.65508,2.9049 2.9429,4.9341 6.204,5.1441 0.73313,0.0472 1.5192,-3.8e-4 2.3395,-0.14949 2.1722,-0.39479 4.6171,-1.5114 7.199,-3.5404 0.24764,-0.19457 0.88933,-0.72104 1.1485,-0.95789 z"
         style="font-variant-ligatures:normal;opacity:0;stroke-width:0;stroke-miterlimit:2"
         id="path309" /><path
         stroke-miterlimit="2"
         class="highlight"
         d="m 546.63,356.47 c 2.6275,-7.7458 5.4752,-15.611 7.1168,-20.942 1.3958,-4.6555 1.8842,-12.054 -0.32817,-12.128 -1.7262,-0.058 -3.6998,1.2911 -5.9672,3.7275 -0.48493,3.6267 -6.6162,20.501 -10.28,30.753 -0.007,0.0216 -0.0166,0.0463 -0.0242,0.0678 0.65193,-0.0645 1.2946,-0.13328 1.923,-0.20591 2.7264,-0.31537 5.2344,-0.72166 7.5598,-1.2727 z"
         style="font-variant-ligatures:normal;opacity:0;stroke-width:0;stroke-miterlimit:2"
         id="path322" /><path
         stroke-miterlimit="2"
         class="highlight"
         d="m 547.8,362.21 c 5.3787,-2.3698 9.4151,-6.8359 10.985,-11.399 -5.1654,4.2052 -11.445,5.971 -19.715,6.9308 -0.63604,0.0738 -1.2628,0.141 -1.923,0.20591 -2.7766,0.27307 -5.791,0.4762 -9.0252,0.66339 -0.14071,0.27284 -0.29012,0.5613 -0.42278,0.8193 -1.1371,2.2121 -2.3971,4.6833 -3.8382,7.2467 1.544,-0.0386 2.8363,-0.0585 3.4954,-0.0405 8.351,-0.19508 13.715,-1.4623 20.443,-4.4268 z"
         style="font-variant-ligatures:normal;opacity:0;stroke-width:0;stroke-miterlimit:2"
         id="path329" /><path
         stroke-miterlimit="2"
         class="highlight"
         d="m 534.6,386.8 c 1.857,1.2487 5.2309,2.361 8.7252,0.56401 -3.6668,-1.7495 -3.461,-4.7743 -2.881,-9.0607 0.43028,-3.1795 1.8753,-8.2175 2.7794,-11.325 -2.8586,0.0635 -5.8155,0.02 -8.8598,-0.10053 -1.4242,6.4785 -3.6623,17.301 0.2362,19.922 z"
         style="font-variant-ligatures:normal;opacity:0;stroke-width:0;stroke-miterlimit:2"
         id="path342" /><path
         stroke-miterlimit="2"
         class="highlight"
         d="m 547.8,362.21 c 5.3787,-2.3698 9.4151,-6.8359 10.985,-11.399 -4.8502,3.9486 -10.687,5.7445 -18.227,6.7435 -0.49152,0.0651 -0.98114,0.12856 -1.4873,0.18723 -0.6367,0.0739 -1.2619,0.14086 -1.923,0.20591 -2.7759,0.27288 -5.7935,0.47634 -9.0252,0.66339 -0.14071,0.27284 -0.29012,0.5613 -0.42278,0.8193 -1.1371,2.2121 -2.3971,4.6833 -3.8382,7.2467 1.544,-0.0386 2.8363,-0.0585 3.4954,-0.0405 8.351,-0.19508 13.715,-1.4623 20.443,-4.4268 z"
         style="font-variant-ligatures:normal;opacity:0;stroke-width:0;stroke-miterlimit:2"
         id="path351" /><path
         stroke-miterlimit="2"
         class="highlight"
         d="m 543.33,387.37 c -0.75727,1.898 -3.6521,4.4287 -7.5229,4.4275 -3.6364,-0.001 -5.7424,-3.0384 -5.7627,-6.7384 -0.018,-3.2997 2.2574,-12.005 4.1235,-18.181 l 0.19971,0.007 c -1.4245,6.4808 -3.6574,17.302 0.23717,19.92 1.857,1.2487 5.2308,2.361 8.7252,0.564 z"
         style="font-variant-ligatures:normal;opacity:0;stroke-width:0;stroke-miterlimit:2"
         id="path358" /><path
         stroke-miterlimit="2"
         class="highlight"
         d="m 553.74,335.53 c 2.0501,-6.458 4.3185,-16.742 -2.4131,-16.742 -10.094,0 -21.385,10.242 -31.794,27.992 -2.7216,4.6407 -4.9524,8.9916 -6.9891,12.993 -1.8842,3.7023 -2.4774,4.8262 -4.0256,7.8332 -1.4294,2.7763 -2.7944,5.4228 -4.1934,7.7786 -1.5405,2.5941 -2.9787,4.7089 -4.82,6.3529 -8.4301,7.5265 -15.77,5.2374 -17.033,-0.37729 -0.21743,6.3079 5.3392,10.432 11.033,10.432 13.311,0 22.998,-12.462 29.581,-23.755 1.778,-3.0499 3.2688,-6.0022 4.6061,-8.604 4.366,-8.4945 13.261,-25.328 19.752,-32.304 2.2674,-2.4363 4.2409,-3.7854 5.9671,-3.7274 2.2125,0.0743 1.7241,7.4723 0.32818,12.128 z"
         style="font-variant-ligatures:normal;opacity:0;stroke-width:0;stroke-miterlimit:2"
         id="path371" /><path
         stroke-miterlimit="2"
         class="highlight"
         d="m 558.78,350.81 c 1.1344,0.41205 2.0808,2.701 1.6575,5.2074 -0.4151,2.458 -1.8064,5.2757 -4.4968,7.2859 -1.249,0.93322 -2.839,1.7942 -4.6312,2.3946 -2.4341,0.81536 -5.2077,1.2144 -8.0841,1.2783 -2.9222,0.0649 -5.944,0.0209 -9.0604,-0.10596 -2.245,-0.0914 -4.5863,-0.17615 -6.8168,-0.23448 8.353,-0.19471 13.718,-1.462 20.447,-4.4269 5.3787,-2.3698 9.4151,-6.8359 10.985,-11.399 z"
         style="font-variant-ligatures:normal;opacity:0;stroke-width:0;stroke-miterlimit:2"
         id="path378" /><path
         stroke-miterlimit="2"
         class="c1"
         d="m 654.6,322.86 c -9.1529,8.1099 -16.083,21.62 -26.418,38.063 -4.9012,7.7981 -9.5396,15.91 -14.458,19.702 -0.56119,0.43268 -2.1777,1.5477 -3.0083,1.1 -0.62135,-0.33486 -0.53131,-1.6294 -0.36245,-2.8028 -0.40483,0.57258 -4.4048,8.4137 0.13821,10.861 0.98551,0.53096 4.9709,-1.0637 8.6162,-3.8331 5.9576,-6.524 13.655,-19.099 19.382,-28.23 0.20827,-0.33201 0.39224,-0.65321 0.59518,-0.97567 5.6,-11.432 9.6722,-16.999 12.396,-21.027 1.9864,-3.0536 4.032,-12.625 3.1184,-12.858 z"
         style="font-variant-ligatures:normal;fill:#d7a909;stroke-width:0;stroke-miterlimit:2"
         id="path381" /><path
         stroke-miterlimit="2"
         class="c1"
         d="m 611.87,320.41 c -4.8234,1.5995 -10.082,6.3348 -13.949,12.805 -2.1871,5.0152 -5.1535,11.986 -4.1848,19.877 0.7217,5.8793 5.691,7.2987 8.7226,6.2684 -2.6879,-2.5193 -2.8278,-7.6493 -1.5216,-12.941 1.323,-5.3597 3.6664,-11.004 6.4593,-14.135 1.6401,-1.839 3.6277,-3.6557 5.6148,-4.6853 0.89543,-0.46394 2.0359,-0.85627 2.7935,-0.44165 0.37427,0.20483 1.0109,0.80818 0.381,3.3857 0.60614,-0.53109 2.8235,-6.908 1.6432,-8.648 -1.0108,-1.4902 -2.2766,-2.1849 -5.9592,-1.4854 z"
         style="font-variant-ligatures:normal;fill:#d7a909;stroke-width:0;stroke-miterlimit:2"
         id="path383" /><path
         stroke-miterlimit="2"
         class="c2"
         d="m 602.46,359.36 c -1.2244,1.0256 -2.806,1.4357 -4.5084,1.4357 -3.6296,0 -5.8309,-3.8927 -5.6852,-9.1575 0.14045,-5.0756 1.5027,-10.81 5.6559,-18.424 -3.0575,7.2555 -4.7224,16.136 -2.667,21.389 1.1581,2.9598 3.9022,4.8144 7.2048,4.757 z"
         style="font-variant-ligatures:normal;fill:#d7a909;stroke-width:0;stroke-miterlimit:2"
         id="path385" /><path
         stroke-miterlimit="2"
         class="c2"
         d="m 670.83,323.83 c -0.71451,-2.0542 -3.0156,-4.1174 -8.1832,-4.1174 -8.2089,0 -13.767,8.3725 -17.366,18.211 -1.7174,4.6953 -3.6016,10.309 -5.3032,15.322 -0.52365,1.5428 -0.98654,2.973 -1.4815,4.4711 -3.3259,10.066 -5.9762,18.942 -6.5072,22.739 -0.99561,7.1201 1.643,11.335 7.2466,11.335 3.434,0 5.2586,-0.61835 5.8523,-1.0292 -0.59621,-4.8834 3.0463,-18.127 7.9113,-33.461 4.5522,-14.348 11.737,-30.653 17.831,-33.471 z"
         style="font-variant-ligatures:normal;fill:#d7a909;stroke-width:0;stroke-miterlimit:2"
         id="path387" /><path
         stroke-miterlimit="2"
         class="c2"
         d="m 627.48,334.64 c 1.1032,-8.2739 -1.3754,-14.931 -11.348,-14.931 -1.6575,0 -3.0327,0.27545 -4.2608,0.6986 2.3027,-0.23349 4.0404,0.24041 4.8984,1.7449 1.1567,2.0283 0.50988,5.0238 -0.58234,8.3885 -0.29801,1.1666 -0.90129,2.6487 -1.4099,3.9896 -2.9087,7.6683 -6.837,14.987 -10.218,22.21 -3.5808,7.6489 -6.4473,15.104 -6.7355,22.421 -0.25237,6.4078 2.7058,12.626 9.0489,12.626 3.997,0 7.865,-1.5614 12.242,-5.8443 -3.1133,2.0441 -6.0967,2.7535 -7.518,1.8818 -1.7736,-1.0878 -1.9682,-4.8662 -1.2364,-8.9099 0.44662,-2.4683 1.2346,-5.0166 2.0766,-7.1822 4.0633,-10.45 13.508,-25.583 15.043,-37.094 z"
         style="font-variant-ligatures:normal;fill:#d7a909;stroke-width:0;stroke-miterlimit:2"
         id="path389" /><path
         stroke-miterlimit="2"
         class="highlight"
         d="m 628.18,360.92 c -4.9013,7.7981 -9.5397,15.91 -14.457,19.702 -0.56139,0.43274 -2.1778,1.5478 -3.0084,1.1001 -0.62004,-0.33402 -0.53172,-1.6234 -0.36378,-2.7948 -0.73002,4.0406 -0.53485,7.8147 1.2376,8.9019 1.4213,0.87167 4.4049,0.16234 7.518,-1.8818 5.9574,-6.524 13.655,-19.099 19.382,-28.23 0.49505,-1.4982 0.95798,-2.9283 1.4817,-4.4711 1.7016,-5.0131 3.5858,-10.627 5.3032,-15.322 1.6834,-4.6027 3.786,-8.8731 6.3983,-12.127 0.15607,-0.19438 0.44209,-0.53379 0.60174,-0.72072 -0.19515,0.2013 -0.52495,0.54494 -0.71849,0.75131 -1.7967,1.9157 -3.5281,4.0555 -5.2382,6.3832 -5.6523,7.6933 -11.1,17.514 -18.136,28.709 z"
         style="font-variant-ligatures:normal;opacity:0;stroke-width:0;stroke-miterlimit:2"
         id="path402" /><path
         stroke-miterlimit="2"
         class="highlight"
         d="m 600.93,346.42 c 1.3228,-5.3597 3.6661,-11.004 6.4591,-14.135 1.6402,-1.839 3.6277,-3.6556 5.6149,-4.6853 0.89549,-0.46389 2.0357,-0.85621 2.7933,-0.44164 0.37426,0.20485 1.0107,0.80804 0.38123,3.3849 1.0924,-3.3644 1.7386,-6.3596 0.58234,-8.3877 -0.85814,-1.5044 -2.5957,-1.9784 -4.8985,-1.7448 h 3.4e-4 -3.4e-4 c -4.8235,1.5994 -10.082,6.3347 -13.948,12.805 -3.0576,7.2555 -4.7226,16.136 -2.6673,21.389 1.1584,2.9598 3.9025,4.8144 7.2048,4.757 -2.6879,-2.5194 -2.8279,-7.6492 -1.5215,-12.941 z"
         style="font-variant-ligatures:normal;opacity:0;stroke-width:0;stroke-miterlimit:2"
         id="path415" /><path
         stroke-miterlimit="2"
         class="highlight"
         d="m 602.46,359.36 c -1.2244,1.0256 -2.806,1.4357 -4.5084,1.4357 -3.6296,0 -5.8309,-3.8927 -5.6852,-9.1575 0.14045,-5.0756 1.5027,-10.81 5.6559,-18.424 -3.0575,7.2555 -4.7224,16.136 -2.667,21.389 1.1581,2.9598 3.9022,4.8144 7.2048,4.757 z"
         style="font-variant-ligatures:normal;opacity:0;stroke-width:0;stroke-miterlimit:2"
         id="path422" /><path
         stroke-miterlimit="2"
         class="highlight"
         d="m 670.83,323.83 c -0.71451,-2.0542 -3.0156,-4.1174 -8.1832,-4.1174 -8.2089,0 -13.767,8.3725 -17.366,18.211 -1.7174,4.6953 -3.6016,10.309 -5.3032,15.322 -0.52365,1.5428 -0.98654,2.973 -1.4815,4.4711 -3.3259,10.066 -5.9762,18.942 -6.5072,22.739 -0.99561,7.1201 1.643,11.335 7.2466,11.335 3.434,0 5.2586,-0.61835 5.8523,-1.0292 -0.59621,-4.8834 3.0463,-18.127 7.9113,-33.461 4.5522,-14.348 11.737,-30.653 17.831,-33.471 z"
         style="font-variant-ligatures:normal;opacity:0;stroke-width:0;stroke-miterlimit:2"
         id="path435" /><path
         stroke-miterlimit="2"
         class="highlight"
         d="m 627.48,334.64 c 1.1032,-8.2739 -1.3754,-14.931 -11.348,-14.931 -1.6575,0 -3.0327,0.27545 -4.2608,0.6986 2.3027,-0.23349 4.0404,0.24041 4.8984,1.7449 1.1567,2.0283 0.50988,5.0238 -0.58234,8.3885 -0.29801,1.1666 -0.90129,2.6487 -1.4099,3.9896 -2.9087,7.6683 -6.837,14.987 -10.218,22.21 -3.5808,7.6489 -6.4473,15.104 -6.7355,22.421 -0.25237,6.4078 2.7058,12.626 9.0489,12.626 3.997,0 7.865,-1.5614 12.242,-5.8443 -3.1133,2.0441 -6.0967,2.7535 -7.518,1.8818 -1.7736,-1.0878 -1.9682,-4.8662 -1.2364,-8.9099 0.44662,-2.4683 1.2346,-5.0166 2.0766,-7.1822 4.0633,-10.45 13.508,-25.583 15.043,-37.094 z"
         style="font-variant-ligatures:normal;opacity:0;stroke-width:0;stroke-miterlimit:2"
         id="path448" /><path
         stroke-miterlimit="2"
         class="c1"
         d="m 728.04,318.79 c -13.676,0 -25.872,8.4215 -32.913,27.728 -3.7174,10.192 -5.8281,22.387 -4.0438,33.092 1.3453,7.2458 4.259,9.2149 5.2218,8.9179 0.96163,-0.29655 4.1582,-3.2937 3.315,-8.471 -2.3702,-3.4566 -2.5613,-16.969 2.2602,-30.37 4.6477,-12.918 13.509,-23.794 26.063,-23.794 6.2519,0 13.28,3.0384 13.481,10.962 1.1518,-2.9261 0.0625,-18.066 -13.384,-18.066 z"
         style="font-variant-ligatures:normal;fill:#d7a909;stroke-width:0;stroke-miterlimit:2"
         id="path451" /><path
         stroke-miterlimit="2"
         class="c2"
         d="m 724.13,328.99 c -8.2167,0 -12.308,7.2178 -15.535,17.195 -2.5151,7.7743 -4.6019,16.302 -7.8512,29.622 -0.39158,1.6053 -0.80162,3.0525 -1.1303,4.2502 -1.3952,5.0839 -3.0666,6.669 -4.6929,6.669 -1.1783,0 -3.0513,-2.9931 -3.8439,-7.1159 1.0564,7.0058 3.821,12.186 9.1738,12.186 5.4236,0 9.6591,-4.7535 12.977,-15.736 1.3487,-4.4637 2.3535,-8.1451 3.2695,-11.45 0.66827,-2.4114 1.2893,-4.6228 1.962,-6.7917 0.34565,-1.1144 0.74659,-2.1875 1.1288,-3.2972 4.9763,-14.447 6.8404,-18.856 11.532,-21.315 -0.5312,-2.0806 -2.5898,-4.2166 -6.9898,-4.2166 z"
         style="font-variant-ligatures:normal;fill:#d7a909;stroke-width:0;stroke-miterlimit:2"
         id="path453" /><path
         stroke-miterlimit="2"
         class="c1"
         d="m 752.13,376.97 c -1.7246,3.6277 -6.1185,6.3861 -9.4489,6.3861 -4.2183,0 -8.1442,-3.0151 -10.731,-7.1894 -2.7112,-4.3748 -4.2513,-8.9826 -6.4757,-13.099 -0.79345,-1.4684 -1.2555,-2.1909 -3.7184,-3.8127 -0.68654,-0.45209 -1.663,-1.0207 -3.2925,-1.4366 -1.8411,-0.46993 -5.2145,-0.99594 -6.2525,-0.57861 1.961,2.4665 3.2314,4.9252 4.2905,7.3704 1.4498,3.3468 2.4767,6.8332 4.0006,10.176 0.74456,1.5389 1.5402,2.9886 2.3987,4.3318 3.8736,6.0604 9.0281,9.9535 16.555,10.093 9.7182,0.18062 13.399,-6.7608 12.674,-12.241 z"
         style="font-variant-ligatures:normal;fill:#d7a909;stroke-width:0;stroke-miterlimit:2"
         id="path455" /><path
         stroke-miterlimit="2"
         class="c2"
         d="m 752.13,376.97 c 0.0881,5.2696 -5.4098,11.104 -11.683,11.104 -6.2507,0 -13.436,-0.88527 -19.945,-13.288 0.74111,1.5537 1.3764,3.0267 2.1494,4.4728 0.71405,1.3358 1.5619,2.6546 2.3373,3.8553 3.6802,5.6989 8.2362,9.6421 15.421,9.609 9.844,-0.0453 15.162,-11.065 11.72,-15.753 z"
         style="font-variant-ligatures:normal;fill:#d7a909;stroke-width:0;stroke-miterlimit:2"
         id="path457" /><path
         stroke-miterlimit="2"
         class="c2"
         d="m 728.04,318.79 c 7.4256,1.1521 13.384,8.0602 13.384,18.066 0,8.9562 -6.5144,17.778 -13.864,20.899 -1.7591,0.74683 -3.7924,1.321 -5.8025,1.5007 -3.1742,0.28385 -6.5012,-0.31302 -9.5451,-2.0152 1.1484,3.3348 5.3112,5.6807 13.263,5.8279 0.26795,0.004 0.73012,10e-4 1.0067,5.3e-4 13.143,-0.036 24.65,-9.2469 26.482,-22.457 1.1502,-8.2923 -2.8693,-14.866 -9.7269,-18.333 -4.4275,-2.2384 -9.7884,-3.4912 -15.198,-3.489 z"
         style="font-variant-ligatures:normal;fill:#d7a909;stroke-width:0;stroke-miterlimit:2"
         id="path459" /><path
         stroke-miterlimit="2"
         class="highlight"
         d="m 741.42,336.85 v -2.6e-4 c 0,-10.005 -5.9588,-16.913 -13.384,-18.065 -13.676,0 -25.872,8.4216 -32.913,27.728 -3.7174,10.192 -5.8282,22.387 -4.0439,33.092 0.7925,4.1229 2.6655,7.1159 3.8438,7.1159 1.6266,0 3.2978,-1.5851 4.6929,-6.669 -2.3702,-3.4566 -2.5612,-16.969 2.2602,-30.37 4.6478,-12.918 13.509,-23.794 26.064,-23.794 6.2517,-10e-6 13.28,3.0384 13.481,10.962 z"
         style="font-variant-ligatures:normal;opacity:0;stroke-width:0;stroke-miterlimit:2"
         id="path472" /><path
         stroke-miterlimit="2"
         class="highlight"
         d="m 742.68,383.35 c -4.2184,0 -8.1443,-3.0151 -10.731,-7.1894 -2.7113,-4.3748 -4.2512,-8.9825 -6.4755,-13.099 -1.8754,-0.0348 -3.5331,-0.18987 -4.991,-0.4527 -2.2322,-0.40242 -3.9912,-1.0523 -5.3095,-1.8697 -0.37876,-0.23487 -0.72621,-0.48949 -1.0334,-0.75101 0.46149,0.74644 0.86529,1.4813 1.2364,2.2115 0.40607,0.79887 0.77268,1.5927 1.1244,2.4044 1.4499,3.3468 2.4767,6.8332 4.0006,10.176 6.509,12.402 13.694,13.288 19.945,13.288 6.2737,0 11.771,-5.8343 11.683,-11.104 -1.7247,3.6277 -6.1184,6.3861 -9.4486,6.3861 z"
         style="font-variant-ligatures:normal;opacity:0;stroke-width:0;stroke-miterlimit:2"
         id="path479" /><path
         stroke-miterlimit="2"
         class="highlight"
         d="m 742.68,383.35 c -4.2184,0 -8.1443,-3.0151 -10.731,-7.1894 -2.7113,-4.3748 -4.2512,-8.9825 -6.4755,-13.099 -1.8729,-0.0346 -3.5334,-0.18971 -4.991,-0.4527 -2.2355,-0.40333 -3.9937,-1.0548 -5.3095,-1.8697 -0.37865,-0.23452 -0.72771,-0.49055 -1.0334,-0.75101 0.46259,0.74823 0.86458,1.4796 1.2364,2.2115 0.405,0.79711 0.77347,1.5945 1.1244,2.4044 1.4499,3.3468 2.4767,6.8332 4.0006,10.176 6.509,12.402 13.694,13.288 19.945,13.288 6.2737,0 11.771,-5.8343 11.683,-11.104 -1.7247,3.6277 -6.1184,6.3861 -9.4486,6.3861 z"
         style="font-variant-ligatures:normal;opacity:0;stroke-width:0;stroke-miterlimit:2"
         id="path488" /><path
         stroke-miterlimit="2"
         class="highlight"
         d="m 712.21,357.24 c 3.044,1.7022 6.3711,2.299 9.5453,2.0152 -0.68672,-0.4521 -1.6629,-1.0207 -3.2926,-1.4366 -1.8412,-0.46999 -5.2145,-0.99595 -6.2528,-0.57866 0,1.7e-4 3.4e-4,3.4e-4 3.4e-4,5.3e-4 2e-5,-1.9e-4 2e-5,-3.6e-4 -3.4e-4,-5.3e-4 z"
         style="font-variant-ligatures:normal;opacity:0;stroke-width:0;stroke-miterlimit:2"
         id="path497" /><path
         stroke-miterlimit="2"
         class="highlight"
         d="m 724.13,328.99 c -8.2167,0 -12.308,7.2178 -15.535,17.195 -2.5151,7.7743 -4.6019,16.302 -7.8512,29.622 -0.39158,1.6053 -0.80162,3.0525 -1.1303,4.2502 -1.3952,5.0839 -3.0666,6.669 -4.6929,6.669 -1.1783,0 -3.0513,-2.9931 -3.8439,-7.1159 1.0564,7.0058 3.821,12.186 9.1738,12.186 5.4236,0 9.6591,-4.7535 12.977,-15.736 1.3487,-4.4637 2.3535,-8.1451 3.2695,-11.45 0.66827,-2.4114 1.2893,-4.6228 1.962,-6.7917 0.34565,-1.1144 0.74659,-2.1875 1.1288,-3.2972 4.9763,-14.447 6.8404,-18.856 11.532,-21.315 -0.5312,-2.0806 -2.5898,-4.2166 -6.9898,-4.2166 z"
         style="font-variant-ligatures:normal;opacity:0;stroke-width:0;stroke-miterlimit:2"
         id="path510" /><path
         stroke-miterlimit="2"
         class="highlight"
         d="m 752.13,376.97 c 0.0881,5.2696 -5.4098,11.104 -11.683,11.104 -6.2507,0 -13.436,-0.88527 -19.945,-13.288 0.74111,1.5537 1.3764,3.0267 2.1494,4.4728 0.71405,1.3358 1.5619,2.6546 2.3373,3.8553 3.6802,5.6989 8.2362,9.6421 15.421,9.609 9.844,-0.0453 15.162,-11.065 11.72,-15.753 z"
         style="font-variant-ligatures:normal;opacity:0;stroke-width:0;stroke-miterlimit:2"
         id="path517" /><path
         stroke-miterlimit="2"
         class="highlight"
         d="m 728.04,318.79 c 7.4256,1.1521 13.384,8.0602 13.384,18.066 0,8.9562 -6.5144,17.778 -13.864,20.899 -1.7591,0.74683 -3.7924,1.321 -5.8025,1.5007 -3.1742,0.28385 -6.5012,-0.31302 -9.5451,-2.0152 1.1484,3.3348 5.3112,5.6807 13.263,5.8279 0.26795,0.004 0.73012,10e-4 1.0067,5.3e-4 13.143,-0.036 24.65,-9.2469 26.482,-22.457 1.1502,-8.2923 -2.8693,-14.866 -9.7269,-18.333 -4.4275,-2.2384 -9.7884,-3.4912 -15.198,-3.489 z"
         style="font-variant-ligatures:normal;opacity:0;stroke-width:0;stroke-miterlimit:2"
         id="path530" /><path
         stroke-miterlimit="2"
         class="c1"
         d="m 840.98,327.13 c -0.48491,3.6267 -6.6162,20.501 -10.28,30.753 -0.90022,2.5192 -1.6533,4.4705 -2.1375,5.9232 -0.88876,3.5419 -5.1701,18.194 -2.1888,22.546 2.4126,3.5212 7.7806,3.9814 10.487,1.0143 -3.6668,-1.7495 -3.4609,-4.7743 -2.8809,-9.0608 0.43026,-3.1796 1.8753,-8.2175 2.7793,-11.325 0.97054,-3.3363 2.1719,-6.8881 3.3989,-10.505 2.6292,-7.7508 5.4751,-15.61 7.1177,-20.945 1.9711,-6.4021 2.7608,-14.286 -1.4166,-13.767 -3.6128,0.4489 -4.8702,4.8235 -4.8787,5.3668 z"
         style="font-variant-ligatures:normal;fill:#d7a909;stroke-width:0;stroke-miterlimit:2"
         id="path533" /><path
         stroke-miterlimit="2"
         class="c2"
         d="m 836.86,387.37 c -0.75727,1.898 -3.6521,4.4287 -7.5229,4.4275 -3.6364,-0.001 -5.7424,-3.0384 -5.7627,-6.7384 -0.018,-3.2997 2.2574,-12.005 4.1235,-18.181 0.34538,-1.143 0.575,-2.1497 0.86415,-3.0682 -1.0513,5.2652 -5.0434,19.892 -0.42727,22.996 1.857,1.2487 5.2308,2.361 8.7252,0.56401 z"
         style="font-variant-ligatures:normal;fill:#d7a909;stroke-width:0;stroke-miterlimit:2"
         id="path535" /><path
         stroke-miterlimit="2"
         class="c1"
         d="m 784.25,380.68 c 0,-4.1034 5.3659,-10.932 17.802,-13.069 1.856,-0.31908 3.8118,-0.5238 5.9915,-0.60978 3.205,-0.12642 10.888,-0.41133 12.853,-0.35609 18.066,0.1084 25.862,-4.8594 28.017,-7.7216 2.1552,-2.8622 4.5309,-6.2272 3.399,-8.1041 -8.5879,6.9916 -20.243,7.2355 -39.007,8.2553 -2.4228,0.13171 -4.7126,0.37867 -7.2267,0.70338 -14.675,1.8952 -29.838,7.4612 -30.071,21.587 0.4664,3.2537 1.6486,5.1933 4.8649,6.5719 0.95235,0.40822 2.796,0.85038 3.6454,0.73149 1.8976,-0.26555 5.7071,-2.831 8.5216,-6.9261 -1.1742,1.0508 -2.813,2.0483 -4.6708,2.1799 -0.53169,0.0376 -1.1651,0.0253 -1.7276,-0.0974 -0.4105,-0.0895 -0.77435,-0.24124 -1.0774,-0.45888 -0.8591,-0.61708 -1.3127,-1.5694 -1.3127,-2.6856 z"
         style="font-variant-ligatures:normal;fill:#d7a909;stroke-width:0;stroke-miterlimit:2"
         id="path537" /><path
         stroke-miterlimit="2"
         class="c2"
         d="m 847.27,335.53 c 2.0501,-6.458 4.3185,-16.742 -2.4131,-16.742 -10.094,0 -21.385,10.242 -31.794,27.992 -2.7216,4.6407 -4.9524,8.9916 -6.9891,12.993 -1.8842,3.7023 -2.4774,4.8262 -4.0256,7.8332 -1.4294,2.7763 -2.7944,5.4228 -4.1934,7.7786 -1.5405,2.5941 -2.9787,4.7089 -4.82,6.3529 -8.4301,7.5265 -15.77,5.2374 -17.033,-0.37729 -0.21743,6.3079 5.3392,10.432 11.033,10.432 13.311,0 22.998,-12.462 29.581,-23.755 1.778,-3.0499 3.2688,-6.0022 4.6061,-8.604 4.366,-8.4945 13.261,-25.328 19.752,-32.304 2.2674,-2.4363 4.2409,-3.7854 5.9671,-3.7274 2.2125,0.0743 1.7241,7.4723 0.32818,12.128 z"
         style="font-variant-ligatures:normal;fill:#d7a909;stroke-width:0;stroke-miterlimit:2"
         id="path539" /><path
         stroke-miterlimit="2"
         class="c2"
         d="m 852.31,350.81 c 1.1344,0.41205 2.0808,2.701 1.6575,5.2074 -0.4151,2.458 -1.8064,5.2757 -4.4968,7.2859 -1.249,0.93322 -2.839,1.7942 -4.6312,2.3946 -2.4341,0.81536 -5.2077,1.2144 -8.0841,1.2783 -2.9222,0.0649 -5.944,0.0209 -9.0604,-0.10596 -2.245,-0.0914 -4.5863,-0.17615 -6.8168,-0.23448 8.353,-0.19471 13.718,-1.462 20.447,-4.4269 5.3787,-2.3698 9.4151,-6.8359 10.985,-11.399 z"
         style="font-variant-ligatures:normal;fill:#d7a909;stroke-width:0;stroke-miterlimit:2"
         id="path541" /><path
         stroke-miterlimit="2"
         class="highlight"
         d="m 792.9,381.86 c -0.10826,0.0842 -0.24726,0.21434 -0.41628,0.34032 -0.14729,0.10983 -0.30318,0.23015 -0.46348,0.33977 -0.24901,0.17027 -0.499,0.32135 -0.66903,0.41858 -0.88641,0.5068 -1.8961,0.88026 -2.9822,0.95718 -0.53172,0.0376 -1.165,0.0253 -1.7276,-0.0974 -0.4104,-0.0895 -0.77435,-0.24124 -1.0772,-0.45892 -0.85919,-0.61699 -1.3129,-1.5694 -1.3129,-2.6856 0,-4.1033 5.3658,-10.932 17.802,-13.069 1.5482,-3.0069 2.1413,-4.1308 4.0254,-7.8328 -14.674,1.8954 -29.837,7.4614 -30.071,21.587 1.8e-4,0.001 7e-4,0.003 8.8e-4,0.006 0.64987,2.8818 2.9193,4.9354 6.204,5.1441 0.73189,0.0465 1.5202,-5.4e-4 2.3395,-0.14949 2.1694,-0.39438 4.6082,-1.5083 7.185,-3.5294 0.25363,-0.1989 0.89665,-0.72087 1.1625,-0.96889 z"
         style="font-variant-ligatures:normal;opacity:0;stroke-width:0;stroke-miterlimit:2"
         id="path548" /><path
         stroke-miterlimit="2"
         class="highlight"
         d="m 792.9,381.86 c -0.10936,0.0851 -0.24527,0.21291 -0.41628,0.34032 -0.15164,0.11297 -0.31384,0.23775 -0.47934,0.35062 -0.2444,0.16667 -0.48842,0.31357 -0.65461,0.40856 -0.88607,0.50637 -1.8953,0.87947 -2.9807,0.95635 -0.53172,0.0376 -1.165,0.0253 -1.7276,-0.0974 -0.4104,-0.0895 -0.77435,-0.24124 -1.0772,-0.45892 -0.85919,-0.61699 -1.3129,-1.5694 -1.3129,-2.6856 0,-4.1033 5.3658,-10.932 17.802,-13.069 1.5482,-3.0069 2.1413,-4.1308 4.0254,-7.8328 -14.674,1.8954 -29.837,7.4614 -30.071,21.587 1.8e-4,0.001 7e-4,0.003 8.8e-4,0.006 0.65508,2.9049 2.9429,4.9341 6.204,5.1441 0.73313,0.0472 1.5192,-3.8e-4 2.3395,-0.14949 2.1722,-0.39479 4.6171,-1.5114 7.199,-3.5404 0.24764,-0.19457 0.88933,-0.72104 1.1485,-0.95789 z"
         style="font-variant-ligatures:normal;opacity:0;stroke-width:0;stroke-miterlimit:2"
         id="path557" /><path
         stroke-miterlimit="2"
         class="highlight"
         d="m 840.16,356.47 c 2.6275,-7.7458 5.4752,-15.611 7.1168,-20.942 1.3958,-4.6555 1.8842,-12.054 -0.32817,-12.128 -1.7262,-0.058 -3.6998,1.2911 -5.9672,3.7275 -0.48493,3.6267 -6.6162,20.501 -10.28,30.753 -0.007,0.0216 -0.0166,0.0463 -0.0242,0.0678 0.65193,-0.0645 1.2946,-0.13328 1.923,-0.20591 2.7264,-0.31537 5.2344,-0.72166 7.5598,-1.2727 z"
         style="font-variant-ligatures:normal;opacity:0;stroke-width:0;stroke-miterlimit:2"
         id="path570" /><path
         stroke-miterlimit="2"
         class="highlight"
         d="m 841.33,362.21 c 5.3787,-2.3698 9.4151,-6.8359 10.985,-11.399 -5.1654,4.2052 -11.445,5.971 -19.715,6.9308 -0.63604,0.0738 -1.2628,0.141 -1.923,0.20591 -2.7766,0.27307 -5.791,0.4762 -9.0252,0.66339 -0.14071,0.27284 -0.29012,0.5613 -0.42278,0.8193 -1.1371,2.2121 -2.3971,4.6833 -3.8382,7.2467 1.544,-0.0386 2.8363,-0.0585 3.4954,-0.0405 8.351,-0.19508 13.715,-1.4623 20.443,-4.4268 z"
         style="font-variant-ligatures:normal;opacity:0;stroke-width:0;stroke-miterlimit:2"
         id="path577" /><path
         stroke-miterlimit="2"
         class="highlight"
         d="m 828.13,386.8 c 1.857,1.2487 5.2309,2.361 8.7252,0.56401 -3.6668,-1.7495 -3.461,-4.7743 -2.881,-9.0607 0.43028,-3.1795 1.8753,-8.2175 2.7794,-11.325 -2.8586,0.0635 -5.8155,0.02 -8.8598,-0.10053 -1.4242,6.4785 -3.6623,17.301 0.2362,19.922 z"
         style="font-variant-ligatures:normal;opacity:0;stroke-width:0;stroke-miterlimit:2"
         id="path590" /><path
         stroke-miterlimit="2"
         class="highlight"
         d="m 841.33,362.21 c 5.3787,-2.3698 9.4151,-6.8359 10.985,-11.399 -4.8502,3.9486 -10.687,5.7445 -18.227,6.7435 -0.49152,0.0651 -0.98114,0.12856 -1.4873,0.18723 -0.6367,0.0739 -1.2619,0.14086 -1.923,0.20591 -2.7759,0.27288 -5.7935,0.47634 -9.0252,0.66339 -0.14071,0.27284 -0.29012,0.5613 -0.42278,0.8193 -1.1371,2.2121 -2.3971,4.6833 -3.8382,7.2467 1.544,-0.0386 2.8363,-0.0585 3.4954,-0.0405 8.351,-0.19508 13.715,-1.4623 20.443,-4.4268 z"
         style="font-variant-ligatures:normal;opacity:0;stroke-width:0;stroke-miterlimit:2"
         id="path599" /><path
         stroke-miterlimit="2"
         class="highlight"
         d="m 836.86,387.37 c -0.75727,1.898 -3.6521,4.4287 -7.5229,4.4275 -3.6364,-0.001 -5.7424,-3.0384 -5.7627,-6.7384 -0.018,-3.2997 2.2574,-12.005 4.1235,-18.181 l 0.19971,0.007 c -1.4245,6.4808 -3.6574,17.302 0.23717,19.92 1.857,1.2487 5.2308,2.361 8.7252,0.564 z"
         style="font-variant-ligatures:normal;opacity:0;stroke-width:0;stroke-miterlimit:2"
         id="path606" /><path
         stroke-miterlimit="2"
         class="highlight"
         d="m 847.27,335.53 c 2.0501,-6.458 4.3185,-16.742 -2.4131,-16.742 -10.094,0 -21.385,10.242 -31.794,27.992 -2.7216,4.6407 -4.9524,8.9916 -6.9891,12.993 -1.8842,3.7023 -2.4774,4.8262 -4.0256,7.8332 -1.4294,2.7763 -2.7944,5.4228 -4.1934,7.7786 -1.5405,2.5941 -2.9787,4.7089 -4.82,6.3529 -8.4301,7.5265 -15.77,5.2374 -17.033,-0.37729 -0.21743,6.3079 5.3392,10.432 11.033,10.432 13.311,0 22.998,-12.462 29.581,-23.755 1.778,-3.0499 3.2688,-6.0022 4.6061,-8.604 4.366,-8.4945 13.261,-25.328 19.752,-32.304 2.2674,-2.4363 4.2409,-3.7854 5.9671,-3.7274 2.2125,0.0743 1.7241,7.4723 0.32818,12.128 z"
         style="font-variant-ligatures:normal;opacity:0;stroke-width:0;stroke-miterlimit:2"
         id="path619" /><path
         stroke-miterlimit="2"
         class="highlight"
         d="m 852.31,350.81 c 1.1344,0.41205 2.0808,2.701 1.6575,5.2074 -0.4151,2.458 -1.8064,5.2757 -4.4968,7.2859 -1.249,0.93322 -2.839,1.7942 -4.6312,2.3946 -2.4341,0.81536 -5.2077,1.2144 -8.0841,1.2783 -2.9222,0.0649 -5.944,0.0209 -9.0604,-0.10596 -2.245,-0.0914 -4.5863,-0.17615 -6.8168,-0.23448 8.353,-0.19471 13.718,-1.462 20.447,-4.4269 5.3787,-2.3698 9.4151,-6.8359 10.985,-11.399 z"
         style="font-variant-ligatures:normal;opacity:0;stroke-width:0;stroke-miterlimit:2"
         id="path626" /></g></g></svg>